%TF.GenerationSoftware,KiCad,Pcbnew,(6.0.9)*%
%TF.CreationDate,2023-01-12T20:02:03+01:00*%
%TF.ProjectId,pcb,7063622e-6b69-4636-9164-5f7063625858,rev?*%
%TF.SameCoordinates,Original*%
%TF.FileFunction,Copper,L2,Bot*%
%TF.FilePolarity,Positive*%
%FSLAX46Y46*%
G04 Gerber Fmt 4.6, Leading zero omitted, Abs format (unit mm)*
G04 Created by KiCad (PCBNEW (6.0.9)) date 2023-01-12 20:02:03*
%MOMM*%
%LPD*%
G01*
G04 APERTURE LIST*
%TA.AperFunction,ComponentPad*%
%ADD10O,1.700000X1.700000*%
%TD*%
%TA.AperFunction,ComponentPad*%
%ADD11R,1.700000X1.700000*%
%TD*%
%TA.AperFunction,ComponentPad*%
%ADD12R,1.350000X1.350000*%
%TD*%
%TA.AperFunction,ComponentPad*%
%ADD13R,0.850000X0.850000*%
%TD*%
%TA.AperFunction,ComponentPad*%
%ADD14O,0.850000X0.850000*%
%TD*%
%TA.AperFunction,ComponentPad*%
%ADD15R,2.540000X2.540000*%
%TD*%
%TA.AperFunction,ComponentPad*%
%ADD16C,2.540000*%
%TD*%
%TA.AperFunction,ViaPad*%
%ADD17C,0.800000*%
%TD*%
%TA.AperFunction,Conductor*%
%ADD18C,0.250000*%
%TD*%
%TA.AperFunction,Conductor*%
%ADD19C,0.500000*%
%TD*%
G04 APERTURE END LIST*
D10*
%TO.P,U1,1,GPIO0*%
%TO.N,unconnected-(U1-Pad1)*%
X189602000Y-22098000D03*
%TO.P,U1,2,GPIO1*%
%TO.N,unconnected-(U1-Pad2)*%
X187062000Y-22098000D03*
D11*
%TO.P,U1,3,GND*%
%TO.N,unconnected-(U1-Pad3)*%
X184522000Y-22098000D03*
D10*
%TO.P,U1,4,GPIO2*%
%TO.N,Net-(J1-Pad1)*%
X181982000Y-22098000D03*
%TO.P,U1,5,GPIO3*%
%TO.N,Net-(J1-Pad2)*%
X179442000Y-22098000D03*
%TO.P,U1,6,GPIO4*%
%TO.N,Net-(J1-Pad5)*%
X176902000Y-22098000D03*
%TO.P,U1,7,GPIO5*%
%TO.N,Net-(J1-Pad6)*%
X174362000Y-22098000D03*
D11*
%TO.P,U1,8,GND*%
%TO.N,unconnected-(U1-Pad8)*%
X171822000Y-22098000D03*
D10*
%TO.P,U1,9,GPIO6*%
%TO.N,unconnected-(U1-Pad9)*%
X169282000Y-22098000D03*
%TO.P,U1,10,GPIO7*%
%TO.N,unconnected-(U1-Pad10)*%
X166742000Y-22098000D03*
%TO.P,U1,11,GPIO8*%
%TO.N,unconnected-(U1-Pad11)*%
X164202000Y-22098000D03*
%TO.P,U1,12,GPIO9*%
%TO.N,unconnected-(U1-Pad12)*%
X161662000Y-22098000D03*
D11*
%TO.P,U1,13,GND*%
%TO.N,unconnected-(U1-Pad13)*%
X159122000Y-22098000D03*
D10*
%TO.P,U1,14,GPIO10*%
%TO.N,unconnected-(U1-Pad14)*%
X156582000Y-22098000D03*
%TO.P,U1,15,GPIO11*%
%TO.N,unconnected-(U1-Pad15)*%
X154042000Y-22098000D03*
%TO.P,U1,16,GPIO12*%
%TO.N,unconnected-(U1-Pad16)*%
X151502000Y-22098000D03*
%TO.P,U1,17,GPIO13*%
%TO.N,unconnected-(U1-Pad17)*%
X148962000Y-22098000D03*
D11*
%TO.P,U1,18,GND*%
%TO.N,unconnected-(U1-Pad18)*%
X146422000Y-22098000D03*
D10*
%TO.P,U1,19,GPIO14*%
%TO.N,unconnected-(U1-Pad19)*%
X143882000Y-22098000D03*
%TO.P,U1,20,GPIO15*%
%TO.N,unconnected-(U1-Pad20)*%
X141342000Y-22098000D03*
%TO.P,U1,21,GPIO16*%
%TO.N,unconnected-(U1-Pad21)*%
X141342000Y-39878000D03*
%TO.P,U1,22,GPIO17*%
%TO.N,unconnected-(U1-Pad22)*%
X143882000Y-39878000D03*
D11*
%TO.P,U1,23,GND*%
%TO.N,unconnected-(U1-Pad23)*%
X146422000Y-39878000D03*
D10*
%TO.P,U1,24,GPIO18*%
%TO.N,unconnected-(U1-Pad24)*%
X148962000Y-39878000D03*
%TO.P,U1,25,GPIO19*%
%TO.N,unconnected-(U1-Pad25)*%
X151502000Y-39878000D03*
%TO.P,U1,26,GPIO20*%
%TO.N,unconnected-(U1-Pad26)*%
X154042000Y-39878000D03*
%TO.P,U1,27,GPIO21*%
%TO.N,unconnected-(U1-Pad27)*%
X156582000Y-39878000D03*
D11*
%TO.P,U1,28,GND*%
%TO.N,unconnected-(U1-Pad28)*%
X159122000Y-39878000D03*
D10*
%TO.P,U1,29,GPIO22*%
%TO.N,unconnected-(U1-Pad29)*%
X161662000Y-39878000D03*
%TO.P,U1,30,RUN*%
%TO.N,unconnected-(U1-Pad30)*%
X164202000Y-39878000D03*
%TO.P,U1,31,GPIO26_ADC0*%
%TO.N,unconnected-(U1-Pad31)*%
X166742000Y-39878000D03*
%TO.P,U1,32,GPIO27_ADC1*%
%TO.N,unconnected-(U1-Pad32)*%
X169282000Y-39878000D03*
D11*
%TO.P,U1,33,AGND*%
%TO.N,unconnected-(U1-Pad33)*%
X171822000Y-39878000D03*
D10*
%TO.P,U1,34,GPIO28_ADC2*%
%TO.N,unconnected-(U1-Pad34)*%
X174362000Y-39878000D03*
%TO.P,U1,35,ADC_VREF*%
%TO.N,unconnected-(U1-Pad35)*%
X176902000Y-39878000D03*
%TO.P,U1,36,3V3*%
%TO.N,unconnected-(U1-Pad36)*%
X179442000Y-39878000D03*
%TO.P,U1,37,3V3_EN*%
%TO.N,unconnected-(U1-Pad37)*%
X181982000Y-39878000D03*
D11*
%TO.P,U1,38,GND*%
%TO.N,Net-(J1-Pad4)*%
X184522000Y-39878000D03*
D10*
%TO.P,U1,39,VSYS*%
%TO.N,Net-(J1-Pad3)*%
X187062000Y-39878000D03*
%TO.P,U1,40,VBUS*%
%TO.N,unconnected-(U1-Pad40)*%
X189602000Y-39878000D03*
%TO.P,U1,41,SWCLK*%
%TO.N,unconnected-(U1-Pad41)*%
X141572000Y-28448000D03*
D11*
%TO.P,U1,42,GND*%
%TO.N,unconnected-(U1-Pad42)*%
X141572000Y-30988000D03*
D10*
%TO.P,U1,43,SWDIO*%
%TO.N,unconnected-(U1-Pad43)*%
X141572000Y-33528000D03*
%TD*%
D12*
%TO.P,J2,1,Pin_1*%
%TO.N,Net-(U2-Pad1)*%
X76581000Y-23368000D03*
%TD*%
%TO.P,J3,1,Pin_1*%
%TO.N,Net-(U2-Pad2)*%
X76581000Y-38608000D03*
%TD*%
D13*
%TO.P,J1,1,Pin_1*%
%TO.N,Net-(J1-Pad1)*%
X129921000Y-20828000D03*
D14*
%TO.P,J1,2,Pin_2*%
%TO.N,Net-(J1-Pad2)*%
X130921000Y-20828000D03*
%TO.P,J1,3,Pin_3*%
%TO.N,Net-(J1-Pad3)*%
X131921000Y-20828000D03*
%TO.P,J1,4,Pin_4*%
%TO.N,Net-(J1-Pad4)*%
X132921000Y-20828000D03*
%TO.P,J1,5,Pin_5*%
%TO.N,Net-(J1-Pad5)*%
X133921000Y-20828000D03*
%TO.P,J1,6,Pin_6*%
%TO.N,Net-(J1-Pad6)*%
X134921000Y-20828000D03*
%TD*%
D15*
%TO.P,U2,1,Vin*%
%TO.N,Net-(U2-Pad1)*%
X84201000Y-21818000D03*
D16*
%TO.P,U2,2,GND*%
%TO.N,Net-(U2-Pad2)*%
X84201000Y-39598000D03*
%TO.P,U2,3,GND*%
%TO.N,Net-(J1-Pad4)*%
X124841000Y-39598000D03*
%TO.P,U2,4,Vout*%
%TO.N,Net-(J1-Pad3)*%
X124841000Y-21818000D03*
%TD*%
D17*
%TO.N,Net-(J1-Pad2)*%
X134874000Y-26797000D03*
%TO.N,Net-(J1-Pad5)*%
X135382000Y-24511000D03*
X170053000Y-25908000D03*
%TO.N,Net-(J1-Pad3)*%
X145161000Y-33528000D03*
X137541000Y-32258000D03*
X137541000Y-28702000D03*
X131826000Y-27051000D03*
%TO.N,Net-(J1-Pad1)*%
X145161000Y-30988000D03*
%TD*%
D18*
%TO.N,Net-(J1-Pad2)*%
X133350000Y-26797000D02*
X130921000Y-24368000D01*
X134874000Y-26797000D02*
X133350000Y-26797000D01*
X130921000Y-24368000D02*
X130921000Y-20828000D01*
%TO.N,Net-(J1-Pad5)*%
X136779000Y-25908000D02*
X135382000Y-24511000D01*
X170053000Y-25908000D02*
X136779000Y-25908000D01*
D19*
%TO.N,Net-(J1-Pad3)*%
X143891000Y-32258000D02*
X145161000Y-33528000D01*
X137541000Y-32258000D02*
X143891000Y-32258000D01*
X133477000Y-28702000D02*
X137541000Y-28702000D01*
X131826000Y-27051000D02*
X133477000Y-28702000D01*
D18*
%TO.N,Net-(J1-Pad1)*%
X129921000Y-20828000D02*
X129921000Y-28448000D01*
X131336000Y-29863000D02*
X129921000Y-28448000D01*
X144036000Y-29863000D02*
X131336000Y-29863000D01*
X145161000Y-30988000D02*
X144036000Y-29863000D01*
%TD*%
M02*
