%TF.GenerationSoftware,KiCad,Pcbnew,(6.0.9)*%
%TF.CreationDate,2023-01-12T20:02:04+01:00*%
%TF.ProjectId,pcb,7063622e-6b69-4636-9164-5f7063625858,rev?*%
%TF.SameCoordinates,Original*%
%TF.FileFunction,Legend,Top*%
%TF.FilePolarity,Positive*%
%FSLAX46Y46*%
G04 Gerber Fmt 4.6, Leading zero omitted, Abs format (unit mm)*
G04 Created by KiCad (PCBNEW (6.0.9)) date 2023-01-12 20:02:04*
%MOMM*%
%LPD*%
G01*
G04 APERTURE LIST*
%ADD10C,0.300000*%
%ADD11C,0.200000*%
%ADD12C,0.150000*%
%ADD13C,0.120000*%
G04 APERTURE END LIST*
D10*
X69886428Y-41040857D02*
X70100714Y-41112285D01*
X70172142Y-41183714D01*
X70243571Y-41326571D01*
X70243571Y-41540857D01*
X70172142Y-41683714D01*
X70100714Y-41755142D01*
X69957857Y-41826571D01*
X69386428Y-41826571D01*
X69386428Y-40326571D01*
X69886428Y-40326571D01*
X70029285Y-40398000D01*
X70100714Y-40469428D01*
X70172142Y-40612285D01*
X70172142Y-40755142D01*
X70100714Y-40898000D01*
X70029285Y-40969428D01*
X69886428Y-41040857D01*
X69386428Y-41040857D01*
X70886428Y-41826571D02*
X70886428Y-40326571D01*
X71386428Y-41398000D01*
X71886428Y-40326571D01*
X71886428Y-41826571D01*
X72529285Y-41755142D02*
X72743571Y-41826571D01*
X73100714Y-41826571D01*
X73243571Y-41755142D01*
X73315000Y-41683714D01*
X73386428Y-41540857D01*
X73386428Y-41398000D01*
X73315000Y-41255142D01*
X73243571Y-41183714D01*
X73100714Y-41112285D01*
X72815000Y-41040857D01*
X72672142Y-40969428D01*
X72600714Y-40898000D01*
X72529285Y-40755142D01*
X72529285Y-40612285D01*
X72600714Y-40469428D01*
X72672142Y-40398000D01*
X72815000Y-40326571D01*
X73172142Y-40326571D01*
X73386428Y-40398000D01*
X75457857Y-40326571D02*
X75743571Y-40326571D01*
X75886428Y-40398000D01*
X76029285Y-40540857D01*
X76100714Y-40826571D01*
X76100714Y-41326571D01*
X76029285Y-41612285D01*
X75886428Y-41755142D01*
X75743571Y-41826571D01*
X75457857Y-41826571D01*
X75315000Y-41755142D01*
X75172142Y-41612285D01*
X75100714Y-41326571D01*
X75100714Y-40826571D01*
X75172142Y-40540857D01*
X75315000Y-40398000D01*
X75457857Y-40326571D01*
X76743571Y-40326571D02*
X76743571Y-41540857D01*
X76815000Y-41683714D01*
X76886428Y-41755142D01*
X77029285Y-41826571D01*
X77315000Y-41826571D01*
X77457857Y-41755142D01*
X77529285Y-41683714D01*
X77600714Y-41540857D01*
X77600714Y-40326571D01*
X78100714Y-40326571D02*
X78957857Y-40326571D01*
X78529285Y-41826571D02*
X78529285Y-40326571D01*
X80600714Y-41255142D02*
X81743571Y-41255142D01*
X193107571Y-39551428D02*
X194321857Y-39551428D01*
X194464714Y-39480000D01*
X194536142Y-39408571D01*
X194607571Y-39265714D01*
X194607571Y-38980000D01*
X194536142Y-38837142D01*
X194464714Y-38765714D01*
X194321857Y-38694285D01*
X193107571Y-38694285D01*
X194536142Y-38051428D02*
X194607571Y-37837142D01*
X194607571Y-37480000D01*
X194536142Y-37337142D01*
X194464714Y-37265714D01*
X194321857Y-37194285D01*
X194179000Y-37194285D01*
X194036142Y-37265714D01*
X193964714Y-37337142D01*
X193893285Y-37480000D01*
X193821857Y-37765714D01*
X193750428Y-37908571D01*
X193679000Y-37980000D01*
X193536142Y-38051428D01*
X193393285Y-38051428D01*
X193250428Y-37980000D01*
X193179000Y-37908571D01*
X193107571Y-37765714D01*
X193107571Y-37408571D01*
X193179000Y-37194285D01*
X193821857Y-36051428D02*
X193893285Y-35837142D01*
X193964714Y-35765714D01*
X194107571Y-35694285D01*
X194321857Y-35694285D01*
X194464714Y-35765714D01*
X194536142Y-35837142D01*
X194607571Y-35980000D01*
X194607571Y-36551428D01*
X193107571Y-36551428D01*
X193107571Y-36051428D01*
X193179000Y-35908571D01*
X193250428Y-35837142D01*
X193393285Y-35765714D01*
X193536142Y-35765714D01*
X193679000Y-35837142D01*
X193750428Y-35908571D01*
X193821857Y-36051428D01*
X193821857Y-36551428D01*
X194607571Y-33908571D02*
X193107571Y-33908571D01*
X193107571Y-33337142D01*
X193179000Y-33194285D01*
X193250428Y-33122857D01*
X193393285Y-33051428D01*
X193607571Y-33051428D01*
X193750428Y-33122857D01*
X193821857Y-33194285D01*
X193893285Y-33337142D01*
X193893285Y-33908571D01*
X193107571Y-32122857D02*
X193107571Y-31837142D01*
X193179000Y-31694285D01*
X193321857Y-31551428D01*
X193607571Y-31480000D01*
X194107571Y-31480000D01*
X194393285Y-31551428D01*
X194536142Y-31694285D01*
X194607571Y-31837142D01*
X194607571Y-32122857D01*
X194536142Y-32265714D01*
X194393285Y-32408571D01*
X194107571Y-32480000D01*
X193607571Y-32480000D01*
X193321857Y-32408571D01*
X193179000Y-32265714D01*
X193107571Y-32122857D01*
X194607571Y-29980000D02*
X193893285Y-30480000D01*
X194607571Y-30837142D02*
X193107571Y-30837142D01*
X193107571Y-30265714D01*
X193179000Y-30122857D01*
X193250428Y-30051428D01*
X193393285Y-29980000D01*
X193607571Y-29980000D01*
X193750428Y-30051428D01*
X193821857Y-30122857D01*
X193893285Y-30265714D01*
X193893285Y-30837142D01*
X193107571Y-29551428D02*
X193107571Y-28694285D01*
X194607571Y-29122857D02*
X193107571Y-29122857D01*
X194607571Y-27051428D02*
X193107571Y-27051428D01*
X193107571Y-26694285D01*
X193179000Y-26480000D01*
X193321857Y-26337142D01*
X193464714Y-26265714D01*
X193750428Y-26194285D01*
X193964714Y-26194285D01*
X194250428Y-26265714D01*
X194393285Y-26337142D01*
X194536142Y-26480000D01*
X194607571Y-26694285D01*
X194607571Y-27051428D01*
X193107571Y-25265714D02*
X193107571Y-24980000D01*
X193179000Y-24837142D01*
X193321857Y-24694285D01*
X193607571Y-24622857D01*
X194107571Y-24622857D01*
X194393285Y-24694285D01*
X194536142Y-24837142D01*
X194607571Y-24980000D01*
X194607571Y-25265714D01*
X194536142Y-25408571D01*
X194393285Y-25551428D01*
X194107571Y-25622857D01*
X193607571Y-25622857D01*
X193321857Y-25551428D01*
X193179000Y-25408571D01*
X193107571Y-25265714D01*
X193107571Y-24122857D02*
X194607571Y-23765714D01*
X193536142Y-23480000D01*
X194607571Y-23194285D01*
X193107571Y-22837142D01*
X194607571Y-22265714D02*
X193107571Y-22265714D01*
X194607571Y-21408571D01*
X193107571Y-21408571D01*
D11*
X129660657Y-25099780D02*
X129698752Y-24956923D01*
X129736847Y-24909304D01*
X129813038Y-24861685D01*
X129927323Y-24861685D01*
X130003514Y-24909304D01*
X130041609Y-24956923D01*
X130079704Y-25052161D01*
X130079704Y-25433114D01*
X129279704Y-25433114D01*
X129279704Y-25099780D01*
X129317800Y-25004542D01*
X129355895Y-24956923D01*
X129432085Y-24909304D01*
X129508276Y-24909304D01*
X129584466Y-24956923D01*
X129622561Y-25004542D01*
X129660657Y-25099780D01*
X129660657Y-25433114D01*
X130079704Y-23909304D02*
X130079704Y-24480733D01*
X130079704Y-24195019D02*
X129279704Y-24195019D01*
X129393990Y-24290257D01*
X129470180Y-24385495D01*
X129508276Y-24480733D01*
X129774942Y-23480733D02*
X129774942Y-22718828D01*
X129851133Y-22290257D02*
X129851133Y-21814066D01*
X130079704Y-22385495D02*
X129279704Y-22052161D01*
X130079704Y-21718828D01*
X132530904Y-24421933D02*
X133330904Y-24088600D01*
X132530904Y-23755266D01*
X133254714Y-22850504D02*
X133292809Y-22898123D01*
X133330904Y-23040980D01*
X133330904Y-23136219D01*
X133292809Y-23279076D01*
X133216619Y-23374314D01*
X133140428Y-23421933D01*
X132988047Y-23469552D01*
X132873761Y-23469552D01*
X132721380Y-23421933D01*
X132645190Y-23374314D01*
X132569000Y-23279076D01*
X132530904Y-23136219D01*
X132530904Y-23040980D01*
X132569000Y-22898123D01*
X132607095Y-22850504D01*
X133254714Y-21850504D02*
X133292809Y-21898123D01*
X133330904Y-22040980D01*
X133330904Y-22136219D01*
X133292809Y-22279076D01*
X133216619Y-22374314D01*
X133140428Y-22421933D01*
X132988047Y-22469552D01*
X132873761Y-22469552D01*
X132721380Y-22421933D01*
X132645190Y-22374314D01*
X132569000Y-22279076D01*
X132530904Y-22136219D01*
X132530904Y-22040980D01*
X132569000Y-21898123D01*
X132607095Y-21850504D01*
X135261333Y-25455333D02*
X135261333Y-24979142D01*
X135489904Y-25550571D02*
X134689904Y-25217238D01*
X135489904Y-24883904D01*
X135489904Y-24026761D02*
X135489904Y-24598190D01*
X135489904Y-24312476D02*
X134689904Y-24312476D01*
X134804190Y-24407714D01*
X134880380Y-24502952D01*
X134918476Y-24598190D01*
X135185142Y-23598190D02*
X135185142Y-22836285D01*
X135070857Y-22026761D02*
X135108952Y-21883904D01*
X135147047Y-21836285D01*
X135223238Y-21788666D01*
X135337523Y-21788666D01*
X135413714Y-21836285D01*
X135451809Y-21883904D01*
X135489904Y-21979142D01*
X135489904Y-22360095D01*
X134689904Y-22360095D01*
X134689904Y-22026761D01*
X134728000Y-21931523D01*
X134766095Y-21883904D01*
X134842285Y-21836285D01*
X134918476Y-21836285D01*
X134994666Y-21883904D01*
X135032761Y-21931523D01*
X135070857Y-22026761D01*
X135070857Y-22360095D01*
D10*
X69632428Y-20212857D02*
X69846714Y-20284285D01*
X69918142Y-20355714D01*
X69989571Y-20498571D01*
X69989571Y-20712857D01*
X69918142Y-20855714D01*
X69846714Y-20927142D01*
X69703857Y-20998571D01*
X69132428Y-20998571D01*
X69132428Y-19498571D01*
X69632428Y-19498571D01*
X69775285Y-19570000D01*
X69846714Y-19641428D01*
X69918142Y-19784285D01*
X69918142Y-19927142D01*
X69846714Y-20070000D01*
X69775285Y-20141428D01*
X69632428Y-20212857D01*
X69132428Y-20212857D01*
X70632428Y-20998571D02*
X70632428Y-19498571D01*
X71132428Y-20570000D01*
X71632428Y-19498571D01*
X71632428Y-20998571D01*
X72275285Y-20927142D02*
X72489571Y-20998571D01*
X72846714Y-20998571D01*
X72989571Y-20927142D01*
X73061000Y-20855714D01*
X73132428Y-20712857D01*
X73132428Y-20570000D01*
X73061000Y-20427142D01*
X72989571Y-20355714D01*
X72846714Y-20284285D01*
X72561000Y-20212857D01*
X72418142Y-20141428D01*
X72346714Y-20070000D01*
X72275285Y-19927142D01*
X72275285Y-19784285D01*
X72346714Y-19641428D01*
X72418142Y-19570000D01*
X72561000Y-19498571D01*
X72918142Y-19498571D01*
X73132428Y-19570000D01*
X75203857Y-19498571D02*
X75489571Y-19498571D01*
X75632428Y-19570000D01*
X75775285Y-19712857D01*
X75846714Y-19998571D01*
X75846714Y-20498571D01*
X75775285Y-20784285D01*
X75632428Y-20927142D01*
X75489571Y-20998571D01*
X75203857Y-20998571D01*
X75061000Y-20927142D01*
X74918142Y-20784285D01*
X74846714Y-20498571D01*
X74846714Y-19998571D01*
X74918142Y-19712857D01*
X75061000Y-19570000D01*
X75203857Y-19498571D01*
X76489571Y-19498571D02*
X76489571Y-20712857D01*
X76561000Y-20855714D01*
X76632428Y-20927142D01*
X76775285Y-20998571D01*
X77061000Y-20998571D01*
X77203857Y-20927142D01*
X77275285Y-20855714D01*
X77346714Y-20712857D01*
X77346714Y-19498571D01*
X77846714Y-19498571D02*
X78703857Y-19498571D01*
X78275285Y-20998571D02*
X78275285Y-19498571D01*
X80346714Y-20427142D02*
X81489571Y-20427142D01*
X80918142Y-20998571D02*
X80918142Y-19855714D01*
D11*
X134143733Y-25358504D02*
X134143733Y-24882314D01*
X134372304Y-25453742D02*
X133572304Y-25120409D01*
X134372304Y-24787076D01*
X134372304Y-23929933D02*
X134372304Y-24501361D01*
X134372304Y-24215647D02*
X133572304Y-24215647D01*
X133686590Y-24310885D01*
X133762780Y-24406123D01*
X133800876Y-24501361D01*
X134067542Y-23501361D02*
X134067542Y-22739457D01*
X134143733Y-22310885D02*
X134143733Y-21834695D01*
X134372304Y-22406123D02*
X133572304Y-22072790D01*
X134372304Y-21739457D01*
X131527600Y-24731504D02*
X131489504Y-24826742D01*
X131489504Y-24969600D01*
X131527600Y-25112457D01*
X131603790Y-25207695D01*
X131679980Y-25255314D01*
X131832361Y-25302933D01*
X131946647Y-25302933D01*
X132099028Y-25255314D01*
X132175219Y-25207695D01*
X132251409Y-25112457D01*
X132289504Y-24969600D01*
X132289504Y-24874361D01*
X132251409Y-24731504D01*
X132213314Y-24683885D01*
X131946647Y-24683885D01*
X131946647Y-24874361D01*
X132289504Y-23683885D02*
X131908552Y-24017219D01*
X132289504Y-24255314D02*
X131489504Y-24255314D01*
X131489504Y-23874361D01*
X131527600Y-23779123D01*
X131565695Y-23731504D01*
X131641885Y-23683885D01*
X131756171Y-23683885D01*
X131832361Y-23731504D01*
X131870457Y-23779123D01*
X131908552Y-23874361D01*
X131908552Y-24255314D01*
X132289504Y-23255314D02*
X131489504Y-23255314D01*
X132289504Y-22683885D01*
X131489504Y-22683885D01*
X132289504Y-22207695D02*
X131489504Y-22207695D01*
X131489504Y-21969600D01*
X131527600Y-21826742D01*
X131603790Y-21731504D01*
X131679980Y-21683885D01*
X131832361Y-21636266D01*
X131946647Y-21636266D01*
X132099028Y-21683885D01*
X132175219Y-21731504D01*
X132251409Y-21826742D01*
X132289504Y-21969600D01*
X132289504Y-22207695D01*
X130803657Y-24993409D02*
X130841752Y-24850552D01*
X130879847Y-24802933D01*
X130956038Y-24755314D01*
X131070323Y-24755314D01*
X131146514Y-24802933D01*
X131184609Y-24850552D01*
X131222704Y-24945790D01*
X131222704Y-25326742D01*
X130422704Y-25326742D01*
X130422704Y-24993409D01*
X130460800Y-24898171D01*
X130498895Y-24850552D01*
X130575085Y-24802933D01*
X130651276Y-24802933D01*
X130727466Y-24850552D01*
X130765561Y-24898171D01*
X130803657Y-24993409D01*
X130803657Y-25326742D01*
X131222704Y-23802933D02*
X131222704Y-24374361D01*
X131222704Y-24088647D02*
X130422704Y-24088647D01*
X130536990Y-24183885D01*
X130613180Y-24279123D01*
X130651276Y-24374361D01*
X130917942Y-23374361D02*
X130917942Y-22612457D01*
X130803657Y-21802933D02*
X130841752Y-21660076D01*
X130879847Y-21612457D01*
X130956038Y-21564838D01*
X131070323Y-21564838D01*
X131146514Y-21612457D01*
X131184609Y-21660076D01*
X131222704Y-21755314D01*
X131222704Y-22136266D01*
X130422704Y-22136266D01*
X130422704Y-21802933D01*
X130460800Y-21707695D01*
X130498895Y-21660076D01*
X130575085Y-21612457D01*
X130651276Y-21612457D01*
X130727466Y-21660076D01*
X130765561Y-21707695D01*
X130803657Y-21802933D01*
X130803657Y-22136266D01*
D12*
%TO.C,U1*%
X164924380Y-31749904D02*
X165733904Y-31749904D01*
X165829142Y-31702285D01*
X165876761Y-31654666D01*
X165924380Y-31559428D01*
X165924380Y-31368952D01*
X165876761Y-31273714D01*
X165829142Y-31226095D01*
X165733904Y-31178476D01*
X164924380Y-31178476D01*
X165924380Y-30178476D02*
X165924380Y-30749904D01*
X165924380Y-30464190D02*
X164924380Y-30464190D01*
X165067238Y-30559428D01*
X165162476Y-30654666D01*
X165210095Y-30749904D01*
X154432592Y-18744277D02*
X154459529Y-18825089D01*
X154540341Y-18905902D01*
X154648091Y-18959776D01*
X154755841Y-18959776D01*
X154836653Y-18932839D01*
X154971340Y-18852027D01*
X155052152Y-18771215D01*
X155132964Y-18636528D01*
X155159902Y-18555715D01*
X155159902Y-18447966D01*
X155106027Y-18340216D01*
X155052152Y-18286341D01*
X154944402Y-18232467D01*
X154890528Y-18232467D01*
X154701966Y-18421028D01*
X154809715Y-18528778D01*
X154701966Y-17936155D02*
X154136280Y-18501841D01*
X153920781Y-18286341D01*
X153893844Y-18205529D01*
X153893844Y-18151654D01*
X153920781Y-18070842D01*
X154001593Y-17990030D01*
X154082406Y-17963093D01*
X154136280Y-17963093D01*
X154217093Y-17990030D01*
X154432592Y-18205529D01*
X153839969Y-17074158D02*
X154163218Y-17397407D01*
X154001593Y-17235783D02*
X153435908Y-17801468D01*
X153570595Y-17774531D01*
X153678345Y-17774531D01*
X153759157Y-17801468D01*
X153301221Y-16535410D02*
X153624470Y-16858659D01*
X153462845Y-16697035D02*
X152897160Y-17262720D01*
X153031847Y-17235783D01*
X153139597Y-17235783D01*
X153220409Y-17262720D01*
X141732592Y-44998277D02*
X141759529Y-45079089D01*
X141840341Y-45159902D01*
X141948091Y-45213776D01*
X142055841Y-45213776D01*
X142136653Y-45186839D01*
X142271340Y-45106027D01*
X142352152Y-45025215D01*
X142432964Y-44890528D01*
X142459902Y-44809715D01*
X142459902Y-44701966D01*
X142406027Y-44594216D01*
X142352152Y-44540341D01*
X142244402Y-44486467D01*
X142190528Y-44486467D01*
X142001966Y-44675028D01*
X142109715Y-44782778D01*
X142001966Y-44190155D02*
X141436280Y-44755841D01*
X141220781Y-44540341D01*
X141193844Y-44459529D01*
X141193844Y-44405654D01*
X141220781Y-44324842D01*
X141301593Y-44244030D01*
X141382406Y-44217093D01*
X141436280Y-44217093D01*
X141517093Y-44244030D01*
X141732592Y-44459529D01*
X141139969Y-43328158D02*
X141463218Y-43651407D01*
X141301593Y-43489783D02*
X140735908Y-44055468D01*
X140870595Y-44028531D01*
X140978345Y-44028531D01*
X141059157Y-44055468D01*
X140089410Y-43408971D02*
X140197160Y-43516720D01*
X140277972Y-43543658D01*
X140331847Y-43543658D01*
X140466534Y-43516720D01*
X140601221Y-43435908D01*
X140816720Y-43220409D01*
X140843658Y-43139597D01*
X140843658Y-43085722D01*
X140816720Y-43004910D01*
X140708971Y-42897160D01*
X140628158Y-42870223D01*
X140574284Y-42870223D01*
X140493471Y-42897160D01*
X140358784Y-43031847D01*
X140331847Y-43112659D01*
X140331847Y-43166534D01*
X140358784Y-43247346D01*
X140466534Y-43355096D01*
X140547346Y-43382033D01*
X140601221Y-43382033D01*
X140682033Y-43355096D01*
X169662592Y-44998277D02*
X169689529Y-45079089D01*
X169770341Y-45159902D01*
X169878091Y-45213776D01*
X169985841Y-45213776D01*
X170066653Y-45186839D01*
X170201340Y-45106027D01*
X170282152Y-45025215D01*
X170362964Y-44890528D01*
X170389902Y-44809715D01*
X170389902Y-44701966D01*
X170336027Y-44594216D01*
X170282152Y-44540341D01*
X170174402Y-44486467D01*
X170120528Y-44486467D01*
X169931966Y-44675028D01*
X170039715Y-44782778D01*
X169931966Y-44190155D02*
X169366280Y-44755841D01*
X169150781Y-44540341D01*
X169123844Y-44459529D01*
X169123844Y-44405654D01*
X169150781Y-44324842D01*
X169231593Y-44244030D01*
X169312406Y-44217093D01*
X169366280Y-44217093D01*
X169447093Y-44244030D01*
X169662592Y-44459529D01*
X168881407Y-44163218D02*
X168827532Y-44163218D01*
X168746720Y-44136280D01*
X168612033Y-44001593D01*
X168585096Y-43920781D01*
X168585096Y-43866906D01*
X168612033Y-43786094D01*
X168665908Y-43732219D01*
X168773658Y-43678345D01*
X169420155Y-43678345D01*
X169069969Y-43328158D01*
X168315722Y-43705282D02*
X167938598Y-43328158D01*
X168746720Y-43004910D01*
X187721966Y-45467526D02*
X188099089Y-44713279D01*
X187344842Y-45090402D01*
X187721966Y-44390030D02*
X187668091Y-44282280D01*
X187533404Y-44147593D01*
X187452592Y-44120656D01*
X187398717Y-44120656D01*
X187317905Y-44147593D01*
X187264030Y-44201468D01*
X187237093Y-44282280D01*
X187237093Y-44336155D01*
X187264030Y-44416967D01*
X187344842Y-44551654D01*
X187371780Y-44632467D01*
X187371780Y-44686341D01*
X187344842Y-44767154D01*
X187290967Y-44821028D01*
X187210155Y-44847966D01*
X187156280Y-44847966D01*
X187075468Y-44821028D01*
X186940781Y-44686341D01*
X186886906Y-44578592D01*
X186806094Y-43959032D02*
X187075468Y-43689658D01*
X186698345Y-44443905D02*
X186806094Y-43959032D01*
X186321221Y-44066781D01*
X186698345Y-43366409D02*
X186644470Y-43258659D01*
X186509783Y-43123972D01*
X186428971Y-43097035D01*
X186375096Y-43097035D01*
X186294284Y-43123972D01*
X186240409Y-43177847D01*
X186213471Y-43258659D01*
X186213471Y-43312534D01*
X186240409Y-43393346D01*
X186321221Y-43528033D01*
X186348158Y-43608845D01*
X186348158Y-43662720D01*
X186321221Y-43743532D01*
X186267346Y-43797407D01*
X186186534Y-43824345D01*
X186132659Y-43824345D01*
X186051847Y-43797407D01*
X185917160Y-43662720D01*
X185863285Y-43554971D01*
X184670155Y-18901841D02*
X184697093Y-18982653D01*
X184777905Y-19063465D01*
X184885654Y-19117340D01*
X184993404Y-19117340D01*
X185074216Y-19090402D01*
X185208903Y-19009590D01*
X185289715Y-18928778D01*
X185370528Y-18794091D01*
X185397465Y-18713279D01*
X185397465Y-18605529D01*
X185343590Y-18497780D01*
X185289715Y-18443905D01*
X185181966Y-18390030D01*
X185128091Y-18390030D01*
X184939529Y-18578592D01*
X185047279Y-18686341D01*
X184939529Y-18093719D02*
X184373844Y-18659404D01*
X184616280Y-17770470D01*
X184050595Y-18336155D01*
X184346906Y-17501096D02*
X183781221Y-18066781D01*
X183646534Y-17932094D01*
X183592659Y-17824345D01*
X183592659Y-17716595D01*
X183619597Y-17635783D01*
X183700409Y-17501096D01*
X183781221Y-17420284D01*
X183915908Y-17339471D01*
X183996720Y-17312534D01*
X184104470Y-17312534D01*
X184212219Y-17366409D01*
X184346906Y-17501096D01*
X175006592Y-44998277D02*
X175033529Y-45079089D01*
X175114341Y-45159902D01*
X175222091Y-45213776D01*
X175329841Y-45213776D01*
X175410653Y-45186839D01*
X175545340Y-45106027D01*
X175626152Y-45025215D01*
X175706964Y-44890528D01*
X175733902Y-44809715D01*
X175733902Y-44701966D01*
X175680027Y-44594216D01*
X175626152Y-44540341D01*
X175518402Y-44486467D01*
X175464528Y-44486467D01*
X175275966Y-44675028D01*
X175383715Y-44782778D01*
X175275966Y-44190155D02*
X174710280Y-44755841D01*
X174494781Y-44540341D01*
X174467844Y-44459529D01*
X174467844Y-44405654D01*
X174494781Y-44324842D01*
X174575593Y-44244030D01*
X174656406Y-44217093D01*
X174710280Y-44217093D01*
X174791093Y-44244030D01*
X175006592Y-44459529D01*
X174225407Y-44163218D02*
X174171532Y-44163218D01*
X174090720Y-44136280D01*
X173956033Y-44001593D01*
X173929096Y-43920781D01*
X173929096Y-43866906D01*
X173956033Y-43786094D01*
X174009908Y-43732219D01*
X174117658Y-43678345D01*
X174764155Y-43678345D01*
X174413969Y-43328158D01*
X173767471Y-43328158D02*
X173794409Y-43408971D01*
X173794409Y-43462845D01*
X173767471Y-43543658D01*
X173740534Y-43570595D01*
X173659722Y-43597532D01*
X173605847Y-43597532D01*
X173525035Y-43570595D01*
X173417285Y-43462845D01*
X173390348Y-43382033D01*
X173390348Y-43328158D01*
X173417285Y-43247346D01*
X173444223Y-43220409D01*
X173525035Y-43193471D01*
X173578910Y-43193471D01*
X173659722Y-43220409D01*
X173767471Y-43328158D01*
X173848284Y-43355096D01*
X173902158Y-43355096D01*
X173982971Y-43328158D01*
X174090720Y-43220409D01*
X174117658Y-43139597D01*
X174117658Y-43085722D01*
X174090720Y-43004910D01*
X173982971Y-42897160D01*
X173902158Y-42870223D01*
X173848284Y-42870223D01*
X173767471Y-42897160D01*
X173659722Y-43004910D01*
X173632784Y-43085722D01*
X173632784Y-43139597D01*
X173659722Y-43220409D01*
X139595809Y-27097523D02*
X139633904Y-26983238D01*
X139633904Y-26792761D01*
X139595809Y-26716571D01*
X139557714Y-26678476D01*
X139481523Y-26640380D01*
X139405333Y-26640380D01*
X139329142Y-26678476D01*
X139291047Y-26716571D01*
X139252952Y-26792761D01*
X139214857Y-26945142D01*
X139176761Y-27021333D01*
X139138666Y-27059428D01*
X139062476Y-27097523D01*
X138986285Y-27097523D01*
X138910095Y-27059428D01*
X138872000Y-27021333D01*
X138833904Y-26945142D01*
X138833904Y-26754666D01*
X138872000Y-26640380D01*
X138833904Y-26373714D02*
X139633904Y-26183238D01*
X139062476Y-26030857D01*
X139633904Y-25878476D01*
X138833904Y-25688000D01*
X139557714Y-24926095D02*
X139595809Y-24964190D01*
X139633904Y-25078476D01*
X139633904Y-25154666D01*
X139595809Y-25268952D01*
X139519619Y-25345142D01*
X139443428Y-25383238D01*
X139291047Y-25421333D01*
X139176761Y-25421333D01*
X139024380Y-25383238D01*
X138948190Y-25345142D01*
X138872000Y-25268952D01*
X138833904Y-25154666D01*
X138833904Y-25078476D01*
X138872000Y-24964190D01*
X138910095Y-24926095D01*
X139633904Y-24202285D02*
X139633904Y-24583238D01*
X138833904Y-24583238D01*
X139633904Y-23935619D02*
X138833904Y-23935619D01*
X139633904Y-23478476D02*
X139176761Y-23821333D01*
X138833904Y-23478476D02*
X139291047Y-23935619D01*
X162052592Y-44998277D02*
X162079529Y-45079089D01*
X162160341Y-45159902D01*
X162268091Y-45213776D01*
X162375841Y-45213776D01*
X162456653Y-45186839D01*
X162591340Y-45106027D01*
X162672152Y-45025215D01*
X162752964Y-44890528D01*
X162779902Y-44809715D01*
X162779902Y-44701966D01*
X162726027Y-44594216D01*
X162672152Y-44540341D01*
X162564402Y-44486467D01*
X162510528Y-44486467D01*
X162321966Y-44675028D01*
X162429715Y-44782778D01*
X162321966Y-44190155D02*
X161756280Y-44755841D01*
X161540781Y-44540341D01*
X161513844Y-44459529D01*
X161513844Y-44405654D01*
X161540781Y-44324842D01*
X161621593Y-44244030D01*
X161702406Y-44217093D01*
X161756280Y-44217093D01*
X161837093Y-44244030D01*
X162052592Y-44459529D01*
X161271407Y-44163218D02*
X161217532Y-44163218D01*
X161136720Y-44136280D01*
X161002033Y-44001593D01*
X160975096Y-43920781D01*
X160975096Y-43866906D01*
X161002033Y-43786094D01*
X161055908Y-43732219D01*
X161163658Y-43678345D01*
X161810155Y-43678345D01*
X161459969Y-43328158D01*
X160732659Y-43624470D02*
X160678784Y-43624470D01*
X160597972Y-43597532D01*
X160463285Y-43462845D01*
X160436348Y-43382033D01*
X160436348Y-43328158D01*
X160463285Y-43247346D01*
X160517160Y-43193471D01*
X160624910Y-43139597D01*
X161271407Y-43139597D01*
X160921221Y-42789410D01*
X184670155Y-44501841D02*
X184697093Y-44582653D01*
X184777905Y-44663465D01*
X184885654Y-44717340D01*
X184993404Y-44717340D01*
X185074216Y-44690402D01*
X185208903Y-44609590D01*
X185289715Y-44528778D01*
X185370528Y-44394091D01*
X185397465Y-44313279D01*
X185397465Y-44205529D01*
X185343590Y-44097780D01*
X185289715Y-44043905D01*
X185181966Y-43990030D01*
X185128091Y-43990030D01*
X184939529Y-44178592D01*
X185047279Y-44286341D01*
X184939529Y-43693719D02*
X184373844Y-44259404D01*
X184616280Y-43370470D01*
X184050595Y-43936155D01*
X184346906Y-43101096D02*
X183781221Y-43666781D01*
X183646534Y-43532094D01*
X183592659Y-43424345D01*
X183592659Y-43316595D01*
X183619597Y-43235783D01*
X183700409Y-43101096D01*
X183781221Y-43020284D01*
X183915908Y-42939471D01*
X183996720Y-42912534D01*
X184104470Y-42912534D01*
X184212219Y-42966409D01*
X184346906Y-43101096D01*
X159270155Y-44501841D02*
X159297093Y-44582653D01*
X159377905Y-44663465D01*
X159485654Y-44717340D01*
X159593404Y-44717340D01*
X159674216Y-44690402D01*
X159808903Y-44609590D01*
X159889715Y-44528778D01*
X159970528Y-44394091D01*
X159997465Y-44313279D01*
X159997465Y-44205529D01*
X159943590Y-44097780D01*
X159889715Y-44043905D01*
X159781966Y-43990030D01*
X159728091Y-43990030D01*
X159539529Y-44178592D01*
X159647279Y-44286341D01*
X159539529Y-43693719D02*
X158973844Y-44259404D01*
X159216280Y-43370470D01*
X158650595Y-43936155D01*
X158946906Y-43101096D02*
X158381221Y-43666781D01*
X158246534Y-43532094D01*
X158192659Y-43424345D01*
X158192659Y-43316595D01*
X158219597Y-43235783D01*
X158300409Y-43101096D01*
X158381221Y-43020284D01*
X158515908Y-42939471D01*
X158596720Y-42912534D01*
X158704470Y-42912534D01*
X158812219Y-42966409D01*
X158946906Y-43101096D01*
X171970155Y-18901841D02*
X171997093Y-18982653D01*
X172077905Y-19063465D01*
X172185654Y-19117340D01*
X172293404Y-19117340D01*
X172374216Y-19090402D01*
X172508903Y-19009590D01*
X172589715Y-18928778D01*
X172670528Y-18794091D01*
X172697465Y-18713279D01*
X172697465Y-18605529D01*
X172643590Y-18497780D01*
X172589715Y-18443905D01*
X172481966Y-18390030D01*
X172428091Y-18390030D01*
X172239529Y-18578592D01*
X172347279Y-18686341D01*
X172239529Y-18093719D02*
X171673844Y-18659404D01*
X171916280Y-17770470D01*
X171350595Y-18336155D01*
X171646906Y-17501096D02*
X171081221Y-18066781D01*
X170946534Y-17932094D01*
X170892659Y-17824345D01*
X170892659Y-17716595D01*
X170919597Y-17635783D01*
X171000409Y-17501096D01*
X171081221Y-17420284D01*
X171215908Y-17339471D01*
X171296720Y-17312534D01*
X171404470Y-17312534D01*
X171512219Y-17366409D01*
X171646906Y-17501096D01*
X161783218Y-18874903D02*
X161810155Y-18955715D01*
X161890967Y-19036528D01*
X161998717Y-19090402D01*
X162106467Y-19090402D01*
X162187279Y-19063465D01*
X162321966Y-18982653D01*
X162402778Y-18901841D01*
X162483590Y-18767154D01*
X162510528Y-18686341D01*
X162510528Y-18578592D01*
X162456653Y-18470842D01*
X162402778Y-18416967D01*
X162295028Y-18363093D01*
X162241154Y-18363093D01*
X162052592Y-18551654D01*
X162160341Y-18659404D01*
X162052592Y-18066781D02*
X161486906Y-18632467D01*
X161271407Y-18416967D01*
X161244470Y-18336155D01*
X161244470Y-18282280D01*
X161271407Y-18201468D01*
X161352219Y-18120656D01*
X161433032Y-18093719D01*
X161486906Y-18093719D01*
X161567719Y-18120656D01*
X161783218Y-18336155D01*
X161459969Y-17474158D02*
X161352219Y-17366409D01*
X161271407Y-17339471D01*
X161217532Y-17339471D01*
X161082845Y-17366409D01*
X160948158Y-17447221D01*
X160732659Y-17662720D01*
X160705722Y-17743532D01*
X160705722Y-17797407D01*
X160732659Y-17878219D01*
X160840409Y-17985969D01*
X160921221Y-18012906D01*
X160975096Y-18012906D01*
X161055908Y-17985969D01*
X161190595Y-17851282D01*
X161217532Y-17770470D01*
X161217532Y-17716595D01*
X161190595Y-17635783D01*
X161082845Y-17528033D01*
X161002033Y-17501096D01*
X160948158Y-17501096D01*
X160867346Y-17528033D01*
X187193218Y-18774903D02*
X187220155Y-18855715D01*
X187300967Y-18936528D01*
X187408717Y-18990402D01*
X187516467Y-18990402D01*
X187597279Y-18963465D01*
X187731966Y-18882653D01*
X187812778Y-18801841D01*
X187893590Y-18667154D01*
X187920528Y-18586341D01*
X187920528Y-18478592D01*
X187866653Y-18370842D01*
X187812778Y-18316967D01*
X187705028Y-18263093D01*
X187651154Y-18263093D01*
X187462592Y-18451654D01*
X187570341Y-18559404D01*
X187462592Y-17966781D02*
X186896906Y-18532467D01*
X186681407Y-18316967D01*
X186654470Y-18236155D01*
X186654470Y-18182280D01*
X186681407Y-18101468D01*
X186762219Y-18020656D01*
X186843032Y-17993719D01*
X186896906Y-17993719D01*
X186977719Y-18020656D01*
X187193218Y-18236155D01*
X186600595Y-17104784D02*
X186923844Y-17428033D01*
X186762219Y-17266409D02*
X186196534Y-17832094D01*
X186331221Y-17805157D01*
X186438971Y-17805157D01*
X186519783Y-17832094D01*
X164323218Y-18874903D02*
X164350155Y-18955715D01*
X164430967Y-19036528D01*
X164538717Y-19090402D01*
X164646467Y-19090402D01*
X164727279Y-19063465D01*
X164861966Y-18982653D01*
X164942778Y-18901841D01*
X165023590Y-18767154D01*
X165050528Y-18686341D01*
X165050528Y-18578592D01*
X164996653Y-18470842D01*
X164942778Y-18416967D01*
X164835028Y-18363093D01*
X164781154Y-18363093D01*
X164592592Y-18551654D01*
X164700341Y-18659404D01*
X164592592Y-18066781D02*
X164026906Y-18632467D01*
X163811407Y-18416967D01*
X163784470Y-18336155D01*
X163784470Y-18282280D01*
X163811407Y-18201468D01*
X163892219Y-18120656D01*
X163973032Y-18093719D01*
X164026906Y-18093719D01*
X164107719Y-18120656D01*
X164323218Y-18336155D01*
X163622845Y-17743532D02*
X163649783Y-17824345D01*
X163649783Y-17878219D01*
X163622845Y-17959032D01*
X163595908Y-17985969D01*
X163515096Y-18012906D01*
X163461221Y-18012906D01*
X163380409Y-17985969D01*
X163272659Y-17878219D01*
X163245722Y-17797407D01*
X163245722Y-17743532D01*
X163272659Y-17662720D01*
X163299597Y-17635783D01*
X163380409Y-17608845D01*
X163434284Y-17608845D01*
X163515096Y-17635783D01*
X163622845Y-17743532D01*
X163703658Y-17770470D01*
X163757532Y-17770470D01*
X163838345Y-17743532D01*
X163946094Y-17635783D01*
X163973032Y-17554971D01*
X163973032Y-17501096D01*
X163946094Y-17420284D01*
X163838345Y-17312534D01*
X163757532Y-17285597D01*
X163703658Y-17285597D01*
X163622845Y-17312534D01*
X163515096Y-17420284D01*
X163488158Y-17501096D01*
X163488158Y-17554971D01*
X163515096Y-17635783D01*
X179563218Y-18874903D02*
X179590155Y-18955715D01*
X179670967Y-19036528D01*
X179778717Y-19090402D01*
X179886467Y-19090402D01*
X179967279Y-19063465D01*
X180101966Y-18982653D01*
X180182778Y-18901841D01*
X180263590Y-18767154D01*
X180290528Y-18686341D01*
X180290528Y-18578592D01*
X180236653Y-18470842D01*
X180182778Y-18416967D01*
X180075028Y-18363093D01*
X180021154Y-18363093D01*
X179832592Y-18551654D01*
X179940341Y-18659404D01*
X179832592Y-18066781D02*
X179266906Y-18632467D01*
X179051407Y-18416967D01*
X179024470Y-18336155D01*
X179024470Y-18282280D01*
X179051407Y-18201468D01*
X179132219Y-18120656D01*
X179213032Y-18093719D01*
X179266906Y-18093719D01*
X179347719Y-18120656D01*
X179563218Y-18336155D01*
X178755096Y-18120656D02*
X178404910Y-17770470D01*
X178808971Y-17743532D01*
X178728158Y-17662720D01*
X178701221Y-17581908D01*
X178701221Y-17528033D01*
X178728158Y-17447221D01*
X178862845Y-17312534D01*
X178943658Y-17285597D01*
X178997532Y-17285597D01*
X179078345Y-17312534D01*
X179239969Y-17474158D01*
X179266906Y-17554971D01*
X179266906Y-17608845D01*
X182103218Y-18774903D02*
X182130155Y-18855715D01*
X182210967Y-18936528D01*
X182318717Y-18990402D01*
X182426467Y-18990402D01*
X182507279Y-18963465D01*
X182641966Y-18882653D01*
X182722778Y-18801841D01*
X182803590Y-18667154D01*
X182830528Y-18586341D01*
X182830528Y-18478592D01*
X182776653Y-18370842D01*
X182722778Y-18316967D01*
X182615028Y-18263093D01*
X182561154Y-18263093D01*
X182372592Y-18451654D01*
X182480341Y-18559404D01*
X182372592Y-17966781D02*
X181806906Y-18532467D01*
X181591407Y-18316967D01*
X181564470Y-18236155D01*
X181564470Y-18182280D01*
X181591407Y-18101468D01*
X181672219Y-18020656D01*
X181753032Y-17993719D01*
X181806906Y-17993719D01*
X181887719Y-18020656D01*
X182103218Y-18236155D01*
X181322033Y-17939844D02*
X181268158Y-17939844D01*
X181187346Y-17912906D01*
X181052659Y-17778219D01*
X181025722Y-17697407D01*
X181025722Y-17643532D01*
X181052659Y-17562720D01*
X181106534Y-17508845D01*
X181214284Y-17454971D01*
X181860781Y-17454971D01*
X181510595Y-17104784D01*
X190399309Y-45634870D02*
X190776433Y-44880622D01*
X190022186Y-45257746D01*
X189914436Y-44611248D02*
X189860561Y-44503499D01*
X189860561Y-44449624D01*
X189887499Y-44368812D01*
X189968311Y-44287999D01*
X190049123Y-44261062D01*
X190102998Y-44261062D01*
X190183810Y-44287999D01*
X190399309Y-44503499D01*
X189833624Y-45069184D01*
X189645062Y-44880622D01*
X189618125Y-44799810D01*
X189618125Y-44745935D01*
X189645062Y-44665123D01*
X189698937Y-44611248D01*
X189779749Y-44584311D01*
X189833624Y-44584311D01*
X189914436Y-44611248D01*
X190102998Y-44799810D01*
X189267938Y-44503499D02*
X189725874Y-44045563D01*
X189752812Y-43964751D01*
X189752812Y-43910876D01*
X189725874Y-43830064D01*
X189618125Y-43722314D01*
X189537312Y-43695377D01*
X189483438Y-43695377D01*
X189402625Y-43722314D01*
X188944690Y-44180250D01*
X189241001Y-43399065D02*
X189187126Y-43291316D01*
X189052439Y-43156629D01*
X188971627Y-43129691D01*
X188917752Y-43129691D01*
X188836940Y-43156629D01*
X188783065Y-43210503D01*
X188756128Y-43291316D01*
X188756128Y-43345190D01*
X188783065Y-43426003D01*
X188863877Y-43560690D01*
X188890815Y-43641502D01*
X188890815Y-43695377D01*
X188863877Y-43776189D01*
X188810003Y-43830064D01*
X188729190Y-43857001D01*
X188675316Y-43857001D01*
X188594503Y-43830064D01*
X188459816Y-43695377D01*
X188405942Y-43587627D01*
X169403218Y-18874903D02*
X169430155Y-18955715D01*
X169510967Y-19036528D01*
X169618717Y-19090402D01*
X169726467Y-19090402D01*
X169807279Y-19063465D01*
X169941966Y-18982653D01*
X170022778Y-18901841D01*
X170103590Y-18767154D01*
X170130528Y-18686341D01*
X170130528Y-18578592D01*
X170076653Y-18470842D01*
X170022778Y-18416967D01*
X169915028Y-18363093D01*
X169861154Y-18363093D01*
X169672592Y-18551654D01*
X169780341Y-18659404D01*
X169672592Y-18066781D02*
X169106906Y-18632467D01*
X168891407Y-18416967D01*
X168864470Y-18336155D01*
X168864470Y-18282280D01*
X168891407Y-18201468D01*
X168972219Y-18120656D01*
X169053032Y-18093719D01*
X169106906Y-18093719D01*
X169187719Y-18120656D01*
X169403218Y-18336155D01*
X168298784Y-17824345D02*
X168406534Y-17932094D01*
X168487346Y-17959032D01*
X168541221Y-17959032D01*
X168675908Y-17932094D01*
X168810595Y-17851282D01*
X169026094Y-17635783D01*
X169053032Y-17554971D01*
X169053032Y-17501096D01*
X169026094Y-17420284D01*
X168918345Y-17312534D01*
X168837532Y-17285597D01*
X168783658Y-17285597D01*
X168702845Y-17312534D01*
X168568158Y-17447221D01*
X168541221Y-17528033D01*
X168541221Y-17581908D01*
X168568158Y-17662720D01*
X168675908Y-17770470D01*
X168756720Y-17797407D01*
X168810595Y-17797407D01*
X168891407Y-17770470D01*
X156962592Y-44998277D02*
X156989529Y-45079089D01*
X157070341Y-45159902D01*
X157178091Y-45213776D01*
X157285841Y-45213776D01*
X157366653Y-45186839D01*
X157501340Y-45106027D01*
X157582152Y-45025215D01*
X157662964Y-44890528D01*
X157689902Y-44809715D01*
X157689902Y-44701966D01*
X157636027Y-44594216D01*
X157582152Y-44540341D01*
X157474402Y-44486467D01*
X157420528Y-44486467D01*
X157231966Y-44675028D01*
X157339715Y-44782778D01*
X157231966Y-44190155D02*
X156666280Y-44755841D01*
X156450781Y-44540341D01*
X156423844Y-44459529D01*
X156423844Y-44405654D01*
X156450781Y-44324842D01*
X156531593Y-44244030D01*
X156612406Y-44217093D01*
X156666280Y-44217093D01*
X156747093Y-44244030D01*
X156962592Y-44459529D01*
X156181407Y-44163218D02*
X156127532Y-44163218D01*
X156046720Y-44136280D01*
X155912033Y-44001593D01*
X155885096Y-43920781D01*
X155885096Y-43866906D01*
X155912033Y-43786094D01*
X155965908Y-43732219D01*
X156073658Y-43678345D01*
X156720155Y-43678345D01*
X156369969Y-43328158D01*
X155831221Y-42789410D02*
X156154470Y-43112659D01*
X155992845Y-42951035D02*
X155427160Y-43516720D01*
X155561847Y-43489783D01*
X155669597Y-43489783D01*
X155750409Y-43516720D01*
X151892592Y-44998277D02*
X151919529Y-45079089D01*
X152000341Y-45159902D01*
X152108091Y-45213776D01*
X152215841Y-45213776D01*
X152296653Y-45186839D01*
X152431340Y-45106027D01*
X152512152Y-45025215D01*
X152592964Y-44890528D01*
X152619902Y-44809715D01*
X152619902Y-44701966D01*
X152566027Y-44594216D01*
X152512152Y-44540341D01*
X152404402Y-44486467D01*
X152350528Y-44486467D01*
X152161966Y-44675028D01*
X152269715Y-44782778D01*
X152161966Y-44190155D02*
X151596280Y-44755841D01*
X151380781Y-44540341D01*
X151353844Y-44459529D01*
X151353844Y-44405654D01*
X151380781Y-44324842D01*
X151461593Y-44244030D01*
X151542406Y-44217093D01*
X151596280Y-44217093D01*
X151677093Y-44244030D01*
X151892592Y-44459529D01*
X151299969Y-43328158D02*
X151623218Y-43651407D01*
X151461593Y-43489783D02*
X150895908Y-44055468D01*
X151030595Y-44028531D01*
X151138345Y-44028531D01*
X151219157Y-44055468D01*
X151030595Y-43058784D02*
X150922845Y-42951035D01*
X150842033Y-42924097D01*
X150788158Y-42924097D01*
X150653471Y-42951035D01*
X150518784Y-43031847D01*
X150303285Y-43247346D01*
X150276348Y-43328158D01*
X150276348Y-43382033D01*
X150303285Y-43462845D01*
X150411035Y-43570595D01*
X150491847Y-43597532D01*
X150545722Y-43597532D01*
X150626534Y-43570595D01*
X150761221Y-43435908D01*
X150788158Y-43355096D01*
X150788158Y-43301221D01*
X150761221Y-43220409D01*
X150653471Y-43112659D01*
X150572659Y-43085722D01*
X150518784Y-43085722D01*
X150437972Y-43112659D01*
X177023218Y-18874903D02*
X177050155Y-18955715D01*
X177130967Y-19036528D01*
X177238717Y-19090402D01*
X177346467Y-19090402D01*
X177427279Y-19063465D01*
X177561966Y-18982653D01*
X177642778Y-18901841D01*
X177723590Y-18767154D01*
X177750528Y-18686341D01*
X177750528Y-18578592D01*
X177696653Y-18470842D01*
X177642778Y-18416967D01*
X177535028Y-18363093D01*
X177481154Y-18363093D01*
X177292592Y-18551654D01*
X177400341Y-18659404D01*
X177292592Y-18066781D02*
X176726906Y-18632467D01*
X176511407Y-18416967D01*
X176484470Y-18336155D01*
X176484470Y-18282280D01*
X176511407Y-18201468D01*
X176592219Y-18120656D01*
X176673032Y-18093719D01*
X176726906Y-18093719D01*
X176807719Y-18120656D01*
X177023218Y-18336155D01*
X176107346Y-17635783D02*
X176484470Y-17258659D01*
X176026534Y-17985969D02*
X176565282Y-17716595D01*
X176215096Y-17366409D01*
X156972592Y-18890277D02*
X156999529Y-18971089D01*
X157080341Y-19051902D01*
X157188091Y-19105776D01*
X157295841Y-19105776D01*
X157376653Y-19078839D01*
X157511340Y-18998027D01*
X157592152Y-18917215D01*
X157672964Y-18782528D01*
X157699902Y-18701715D01*
X157699902Y-18593966D01*
X157646027Y-18486216D01*
X157592152Y-18432341D01*
X157484402Y-18378467D01*
X157430528Y-18378467D01*
X157241966Y-18567028D01*
X157349715Y-18674778D01*
X157241966Y-18082155D02*
X156676280Y-18647841D01*
X156460781Y-18432341D01*
X156433844Y-18351529D01*
X156433844Y-18297654D01*
X156460781Y-18216842D01*
X156541593Y-18136030D01*
X156622406Y-18109093D01*
X156676280Y-18109093D01*
X156757093Y-18136030D01*
X156972592Y-18351529D01*
X156379969Y-17220158D02*
X156703218Y-17543407D01*
X156541593Y-17381783D02*
X155975908Y-17947468D01*
X156110595Y-17920531D01*
X156218345Y-17920531D01*
X156299157Y-17947468D01*
X155464097Y-17435658D02*
X155410223Y-17381783D01*
X155383285Y-17300971D01*
X155383285Y-17247096D01*
X155410223Y-17166284D01*
X155491035Y-17031597D01*
X155625722Y-16896910D01*
X155760409Y-16816097D01*
X155841221Y-16789160D01*
X155895096Y-16789160D01*
X155975908Y-16816097D01*
X156029783Y-16869972D01*
X156056720Y-16950784D01*
X156056720Y-17004659D01*
X156029783Y-17085471D01*
X155948971Y-17220158D01*
X155814284Y-17354845D01*
X155679597Y-17435658D01*
X155598784Y-17462595D01*
X155544910Y-17462595D01*
X155464097Y-17435658D01*
X189723218Y-18874903D02*
X189750155Y-18955715D01*
X189830967Y-19036528D01*
X189938717Y-19090402D01*
X190046467Y-19090402D01*
X190127279Y-19063465D01*
X190261966Y-18982653D01*
X190342778Y-18901841D01*
X190423590Y-18767154D01*
X190450528Y-18686341D01*
X190450528Y-18578592D01*
X190396653Y-18470842D01*
X190342778Y-18416967D01*
X190235028Y-18363093D01*
X190181154Y-18363093D01*
X189992592Y-18551654D01*
X190100341Y-18659404D01*
X189992592Y-18066781D02*
X189426906Y-18632467D01*
X189211407Y-18416967D01*
X189184470Y-18336155D01*
X189184470Y-18282280D01*
X189211407Y-18201468D01*
X189292219Y-18120656D01*
X189373032Y-18093719D01*
X189426906Y-18093719D01*
X189507719Y-18120656D01*
X189723218Y-18336155D01*
X188753471Y-17959032D02*
X188699597Y-17905157D01*
X188672659Y-17824345D01*
X188672659Y-17770470D01*
X188699597Y-17689658D01*
X188780409Y-17554971D01*
X188915096Y-17420284D01*
X189049783Y-17339471D01*
X189130595Y-17312534D01*
X189184470Y-17312534D01*
X189265282Y-17339471D01*
X189319157Y-17393346D01*
X189346094Y-17474158D01*
X189346094Y-17528033D01*
X189319157Y-17608845D01*
X189238345Y-17743532D01*
X189103658Y-17878219D01*
X188968971Y-17959032D01*
X188888158Y-17985969D01*
X188834284Y-17985969D01*
X188753471Y-17959032D01*
X149352592Y-18890277D02*
X149379529Y-18971089D01*
X149460341Y-19051902D01*
X149568091Y-19105776D01*
X149675841Y-19105776D01*
X149756653Y-19078839D01*
X149891340Y-18998027D01*
X149972152Y-18917215D01*
X150052964Y-18782528D01*
X150079902Y-18701715D01*
X150079902Y-18593966D01*
X150026027Y-18486216D01*
X149972152Y-18432341D01*
X149864402Y-18378467D01*
X149810528Y-18378467D01*
X149621966Y-18567028D01*
X149729715Y-18674778D01*
X149621966Y-18082155D02*
X149056280Y-18647841D01*
X148840781Y-18432341D01*
X148813844Y-18351529D01*
X148813844Y-18297654D01*
X148840781Y-18216842D01*
X148921593Y-18136030D01*
X149002406Y-18109093D01*
X149056280Y-18109093D01*
X149137093Y-18136030D01*
X149352592Y-18351529D01*
X148759969Y-17220158D02*
X149083218Y-17543407D01*
X148921593Y-17381783D02*
X148355908Y-17947468D01*
X148490595Y-17920531D01*
X148598345Y-17920531D01*
X148679157Y-17947468D01*
X148005722Y-17597282D02*
X147655536Y-17247096D01*
X148059597Y-17220158D01*
X147978784Y-17139346D01*
X147951847Y-17058534D01*
X147951847Y-17004659D01*
X147978784Y-16923847D01*
X148113471Y-16789160D01*
X148194284Y-16762223D01*
X148248158Y-16762223D01*
X148328971Y-16789160D01*
X148490595Y-16950784D01*
X148517532Y-17031597D01*
X148517532Y-17085471D01*
X167132592Y-44998277D02*
X167159529Y-45079089D01*
X167240341Y-45159902D01*
X167348091Y-45213776D01*
X167455841Y-45213776D01*
X167536653Y-45186839D01*
X167671340Y-45106027D01*
X167752152Y-45025215D01*
X167832964Y-44890528D01*
X167859902Y-44809715D01*
X167859902Y-44701966D01*
X167806027Y-44594216D01*
X167752152Y-44540341D01*
X167644402Y-44486467D01*
X167590528Y-44486467D01*
X167401966Y-44675028D01*
X167509715Y-44782778D01*
X167401966Y-44190155D02*
X166836280Y-44755841D01*
X166620781Y-44540341D01*
X166593844Y-44459529D01*
X166593844Y-44405654D01*
X166620781Y-44324842D01*
X166701593Y-44244030D01*
X166782406Y-44217093D01*
X166836280Y-44217093D01*
X166917093Y-44244030D01*
X167132592Y-44459529D01*
X166351407Y-44163218D02*
X166297532Y-44163218D01*
X166216720Y-44136280D01*
X166082033Y-44001593D01*
X166055096Y-43920781D01*
X166055096Y-43866906D01*
X166082033Y-43786094D01*
X166135908Y-43732219D01*
X166243658Y-43678345D01*
X166890155Y-43678345D01*
X166539969Y-43328158D01*
X165489410Y-43408971D02*
X165597160Y-43516720D01*
X165677972Y-43543658D01*
X165731847Y-43543658D01*
X165866534Y-43516720D01*
X166001221Y-43435908D01*
X166216720Y-43220409D01*
X166243658Y-43139597D01*
X166243658Y-43085722D01*
X166216720Y-43004910D01*
X166108971Y-42897160D01*
X166028158Y-42870223D01*
X165974284Y-42870223D01*
X165893471Y-42897160D01*
X165758784Y-43031847D01*
X165731847Y-43112659D01*
X165731847Y-43166534D01*
X165758784Y-43247346D01*
X165866534Y-43355096D01*
X165947346Y-43382033D01*
X166001221Y-43382033D01*
X166082033Y-43355096D01*
X141732592Y-18890277D02*
X141759529Y-18971089D01*
X141840341Y-19051902D01*
X141948091Y-19105776D01*
X142055841Y-19105776D01*
X142136653Y-19078839D01*
X142271340Y-18998027D01*
X142352152Y-18917215D01*
X142432964Y-18782528D01*
X142459902Y-18701715D01*
X142459902Y-18593966D01*
X142406027Y-18486216D01*
X142352152Y-18432341D01*
X142244402Y-18378467D01*
X142190528Y-18378467D01*
X142001966Y-18567028D01*
X142109715Y-18674778D01*
X142001966Y-18082155D02*
X141436280Y-18647841D01*
X141220781Y-18432341D01*
X141193844Y-18351529D01*
X141193844Y-18297654D01*
X141220781Y-18216842D01*
X141301593Y-18136030D01*
X141382406Y-18109093D01*
X141436280Y-18109093D01*
X141517093Y-18136030D01*
X141732592Y-18351529D01*
X141139969Y-17220158D02*
X141463218Y-17543407D01*
X141301593Y-17381783D02*
X140735908Y-17947468D01*
X140870595Y-17920531D01*
X140978345Y-17920531D01*
X141059157Y-17947468D01*
X140062473Y-17274033D02*
X140331847Y-17543407D01*
X140628158Y-17300971D01*
X140574284Y-17300971D01*
X140493471Y-17274033D01*
X140358784Y-17139346D01*
X140331847Y-17058534D01*
X140331847Y-17004659D01*
X140358784Y-16923847D01*
X140493471Y-16789160D01*
X140574284Y-16762223D01*
X140628158Y-16762223D01*
X140708971Y-16789160D01*
X140843658Y-16923847D01*
X140870595Y-17004659D01*
X140870595Y-17058534D01*
X159270155Y-18901841D02*
X159297093Y-18982653D01*
X159377905Y-19063465D01*
X159485654Y-19117340D01*
X159593404Y-19117340D01*
X159674216Y-19090402D01*
X159808903Y-19009590D01*
X159889715Y-18928778D01*
X159970528Y-18794091D01*
X159997465Y-18713279D01*
X159997465Y-18605529D01*
X159943590Y-18497780D01*
X159889715Y-18443905D01*
X159781966Y-18390030D01*
X159728091Y-18390030D01*
X159539529Y-18578592D01*
X159647279Y-18686341D01*
X159539529Y-18093719D02*
X158973844Y-18659404D01*
X159216280Y-17770470D01*
X158650595Y-18336155D01*
X158946906Y-17501096D02*
X158381221Y-18066781D01*
X158246534Y-17932094D01*
X158192659Y-17824345D01*
X158192659Y-17716595D01*
X158219597Y-17635783D01*
X158300409Y-17501096D01*
X158381221Y-17420284D01*
X158515908Y-17339471D01*
X158596720Y-17312534D01*
X158704470Y-17312534D01*
X158812219Y-17366409D01*
X158946906Y-17501096D01*
X144272592Y-18844277D02*
X144299529Y-18925089D01*
X144380341Y-19005902D01*
X144488091Y-19059776D01*
X144595841Y-19059776D01*
X144676653Y-19032839D01*
X144811340Y-18952027D01*
X144892152Y-18871215D01*
X144972964Y-18736528D01*
X144999902Y-18655715D01*
X144999902Y-18547966D01*
X144946027Y-18440216D01*
X144892152Y-18386341D01*
X144784402Y-18332467D01*
X144730528Y-18332467D01*
X144541966Y-18521028D01*
X144649715Y-18628778D01*
X144541966Y-18036155D02*
X143976280Y-18601841D01*
X143760781Y-18386341D01*
X143733844Y-18305529D01*
X143733844Y-18251654D01*
X143760781Y-18170842D01*
X143841593Y-18090030D01*
X143922406Y-18063093D01*
X143976280Y-18063093D01*
X144057093Y-18090030D01*
X144272592Y-18305529D01*
X143679969Y-17174158D02*
X144003218Y-17497407D01*
X143841593Y-17335783D02*
X143275908Y-17901468D01*
X143410595Y-17874531D01*
X143518345Y-17874531D01*
X143599157Y-17901468D01*
X142817972Y-17066409D02*
X143195096Y-16689285D01*
X142737160Y-17416595D02*
X143275908Y-17147221D01*
X142925722Y-16797035D01*
X183830308Y-46465868D02*
X183480122Y-46115682D01*
X183884183Y-46088744D01*
X183803370Y-46007932D01*
X183776433Y-45927120D01*
X183776433Y-45873245D01*
X183803370Y-45792433D01*
X183938057Y-45657746D01*
X184018870Y-45630809D01*
X184072744Y-45630809D01*
X184153557Y-45657746D01*
X184315181Y-45819370D01*
X184342118Y-45900183D01*
X184342118Y-45954057D01*
X183318497Y-45954057D02*
X183695621Y-45199810D01*
X182941374Y-45576934D01*
X182806687Y-45442247D02*
X182456500Y-45092061D01*
X182860561Y-45065123D01*
X182779749Y-44984311D01*
X182752812Y-44903499D01*
X182752812Y-44849624D01*
X182779749Y-44768812D01*
X182914436Y-44634125D01*
X182995248Y-44607187D01*
X183049123Y-44607187D01*
X183129935Y-44634125D01*
X183291560Y-44795749D01*
X183318497Y-44876561D01*
X183318497Y-44930436D01*
X182968311Y-44364751D02*
X182537312Y-43933752D01*
X182052439Y-44149251D02*
X181863877Y-43960690D01*
X182079377Y-43583566D02*
X182348751Y-43852940D01*
X181783065Y-44418625D01*
X181513691Y-44149251D01*
X181836940Y-43341129D02*
X181271255Y-43906815D01*
X181513691Y-43017881D01*
X180948006Y-43583566D01*
X144272592Y-44998277D02*
X144299529Y-45079089D01*
X144380341Y-45159902D01*
X144488091Y-45213776D01*
X144595841Y-45213776D01*
X144676653Y-45186839D01*
X144811340Y-45106027D01*
X144892152Y-45025215D01*
X144972964Y-44890528D01*
X144999902Y-44809715D01*
X144999902Y-44701966D01*
X144946027Y-44594216D01*
X144892152Y-44540341D01*
X144784402Y-44486467D01*
X144730528Y-44486467D01*
X144541966Y-44675028D01*
X144649715Y-44782778D01*
X144541966Y-44190155D02*
X143976280Y-44755841D01*
X143760781Y-44540341D01*
X143733844Y-44459529D01*
X143733844Y-44405654D01*
X143760781Y-44324842D01*
X143841593Y-44244030D01*
X143922406Y-44217093D01*
X143976280Y-44217093D01*
X144057093Y-44244030D01*
X144272592Y-44459529D01*
X143679969Y-43328158D02*
X144003218Y-43651407D01*
X143841593Y-43489783D02*
X143275908Y-44055468D01*
X143410595Y-44028531D01*
X143518345Y-44028531D01*
X143599157Y-44055468D01*
X142925722Y-43705282D02*
X142548598Y-43328158D01*
X143356720Y-43004910D01*
X154432592Y-44998277D02*
X154459529Y-45079089D01*
X154540341Y-45159902D01*
X154648091Y-45213776D01*
X154755841Y-45213776D01*
X154836653Y-45186839D01*
X154971340Y-45106027D01*
X155052152Y-45025215D01*
X155132964Y-44890528D01*
X155159902Y-44809715D01*
X155159902Y-44701966D01*
X155106027Y-44594216D01*
X155052152Y-44540341D01*
X154944402Y-44486467D01*
X154890528Y-44486467D01*
X154701966Y-44675028D01*
X154809715Y-44782778D01*
X154701966Y-44190155D02*
X154136280Y-44755841D01*
X153920781Y-44540341D01*
X153893844Y-44459529D01*
X153893844Y-44405654D01*
X153920781Y-44324842D01*
X154001593Y-44244030D01*
X154082406Y-44217093D01*
X154136280Y-44217093D01*
X154217093Y-44244030D01*
X154432592Y-44459529D01*
X153651407Y-44163218D02*
X153597532Y-44163218D01*
X153516720Y-44136280D01*
X153382033Y-44001593D01*
X153355096Y-43920781D01*
X153355096Y-43866906D01*
X153382033Y-43786094D01*
X153435908Y-43732219D01*
X153543658Y-43678345D01*
X154190155Y-43678345D01*
X153839969Y-43328158D01*
X152924097Y-43543658D02*
X152870223Y-43489783D01*
X152843285Y-43408971D01*
X152843285Y-43355096D01*
X152870223Y-43274284D01*
X152951035Y-43139597D01*
X153085722Y-43004910D01*
X153220409Y-42924097D01*
X153301221Y-42897160D01*
X153355096Y-42897160D01*
X153435908Y-42924097D01*
X153489783Y-42977972D01*
X153516720Y-43058784D01*
X153516720Y-43112659D01*
X153489783Y-43193471D01*
X153408971Y-43328158D01*
X153274284Y-43462845D01*
X153139597Y-43543658D01*
X153058784Y-43570595D01*
X153004910Y-43570595D01*
X152924097Y-43543658D01*
X180005773Y-46833211D02*
X179736399Y-46563837D01*
X180221272Y-46725462D02*
X179467025Y-47102585D01*
X179844149Y-46348338D01*
X179655587Y-46159776D02*
X179089902Y-46725462D01*
X178955215Y-46590775D01*
X178901340Y-46483025D01*
X178901340Y-46375276D01*
X178928277Y-46294463D01*
X179009089Y-46159776D01*
X179089902Y-46078964D01*
X179224589Y-45998152D01*
X179305401Y-45971215D01*
X179413150Y-45971215D01*
X179520900Y-46025089D01*
X179655587Y-46159776D01*
X178712778Y-45324717D02*
X178766653Y-45324717D01*
X178874402Y-45378592D01*
X178928277Y-45432467D01*
X178982152Y-45540216D01*
X178982152Y-45647966D01*
X178955215Y-45728778D01*
X178874402Y-45863465D01*
X178793590Y-45944277D01*
X178658903Y-46025089D01*
X178578091Y-46052027D01*
X178470341Y-46052027D01*
X178362592Y-45998152D01*
X178308717Y-45944277D01*
X178254842Y-45836528D01*
X178254842Y-45782653D01*
X178712778Y-45109218D02*
X178281780Y-44678219D01*
X177608345Y-45243905D02*
X177985468Y-44489658D01*
X177231221Y-44866781D01*
X177285096Y-43789285D02*
X177204284Y-44247221D01*
X177608345Y-44112534D02*
X177042659Y-44678219D01*
X176827160Y-44462720D01*
X176800223Y-44381908D01*
X176800223Y-44328033D01*
X176827160Y-44247221D01*
X176907972Y-44166409D01*
X176988784Y-44139471D01*
X177042659Y-44139471D01*
X177123471Y-44166409D01*
X177338971Y-44381908D01*
X176746348Y-43843160D02*
X176557786Y-43654598D01*
X176773285Y-43277475D02*
X177042659Y-43546849D01*
X176476974Y-44112534D01*
X176207600Y-43843160D01*
X176045975Y-43142788D02*
X176234537Y-43331349D01*
X176530849Y-43035038D02*
X175965163Y-43600723D01*
X175695789Y-43331349D01*
X179762592Y-44898152D02*
X179412406Y-44547966D01*
X179816467Y-44521028D01*
X179735654Y-44440216D01*
X179708717Y-44359404D01*
X179708717Y-44305529D01*
X179735654Y-44224717D01*
X179870341Y-44090030D01*
X179951154Y-44063093D01*
X180005028Y-44063093D01*
X180085841Y-44090030D01*
X180247465Y-44251654D01*
X180274402Y-44332467D01*
X180274402Y-44386341D01*
X179250781Y-44386341D02*
X179627905Y-43632094D01*
X178873658Y-44009218D01*
X178738971Y-43874531D02*
X178388784Y-43524345D01*
X178792845Y-43497407D01*
X178712033Y-43416595D01*
X178685096Y-43335783D01*
X178685096Y-43281908D01*
X178712033Y-43201096D01*
X178846720Y-43066409D01*
X178927532Y-43039471D01*
X178981407Y-43039471D01*
X179062219Y-43066409D01*
X179223844Y-43228033D01*
X179250781Y-43308845D01*
X179250781Y-43362720D01*
X146570155Y-18901841D02*
X146597093Y-18982653D01*
X146677905Y-19063465D01*
X146785654Y-19117340D01*
X146893404Y-19117340D01*
X146974216Y-19090402D01*
X147108903Y-19009590D01*
X147189715Y-18928778D01*
X147270528Y-18794091D01*
X147297465Y-18713279D01*
X147297465Y-18605529D01*
X147243590Y-18497780D01*
X147189715Y-18443905D01*
X147081966Y-18390030D01*
X147028091Y-18390030D01*
X146839529Y-18578592D01*
X146947279Y-18686341D01*
X146839529Y-18093719D02*
X146273844Y-18659404D01*
X146516280Y-17770470D01*
X145950595Y-18336155D01*
X146246906Y-17501096D02*
X145681221Y-18066781D01*
X145546534Y-17932094D01*
X145492659Y-17824345D01*
X145492659Y-17716595D01*
X145519597Y-17635783D01*
X145600409Y-17501096D01*
X145681221Y-17420284D01*
X145815908Y-17339471D01*
X145896720Y-17312534D01*
X146004470Y-17312534D01*
X146112219Y-17366409D01*
X146246906Y-17501096D01*
X166893218Y-18974903D02*
X166920155Y-19055715D01*
X167000967Y-19136528D01*
X167108717Y-19190402D01*
X167216467Y-19190402D01*
X167297279Y-19163465D01*
X167431966Y-19082653D01*
X167512778Y-19001841D01*
X167593590Y-18867154D01*
X167620528Y-18786341D01*
X167620528Y-18678592D01*
X167566653Y-18570842D01*
X167512778Y-18516967D01*
X167405028Y-18463093D01*
X167351154Y-18463093D01*
X167162592Y-18651654D01*
X167270341Y-18759404D01*
X167162592Y-18166781D02*
X166596906Y-18732467D01*
X166381407Y-18516967D01*
X166354470Y-18436155D01*
X166354470Y-18382280D01*
X166381407Y-18301468D01*
X166462219Y-18220656D01*
X166543032Y-18193719D01*
X166596906Y-18193719D01*
X166677719Y-18220656D01*
X166893218Y-18436155D01*
X166085096Y-18220656D02*
X165707972Y-17843532D01*
X166516094Y-17520284D01*
X164875435Y-44149624D02*
X164794622Y-44607560D01*
X165198683Y-44472873D02*
X164632998Y-45038558D01*
X164417499Y-44823059D01*
X164390561Y-44742247D01*
X164390561Y-44688372D01*
X164417499Y-44607560D01*
X164498311Y-44526748D01*
X164579123Y-44499810D01*
X164632998Y-44499810D01*
X164713810Y-44526748D01*
X164929309Y-44742247D01*
X164067312Y-44472873D02*
X164525248Y-44014937D01*
X164552186Y-43934125D01*
X164552186Y-43880250D01*
X164525248Y-43799438D01*
X164417499Y-43691688D01*
X164336687Y-43664751D01*
X164282812Y-43664751D01*
X164202000Y-43691688D01*
X163744064Y-44149624D01*
X164040375Y-43314564D02*
X163474690Y-43880250D01*
X163717126Y-42991316D01*
X163151441Y-43557001D01*
X174483218Y-18874903D02*
X174510155Y-18955715D01*
X174590967Y-19036528D01*
X174698717Y-19090402D01*
X174806467Y-19090402D01*
X174887279Y-19063465D01*
X175021966Y-18982653D01*
X175102778Y-18901841D01*
X175183590Y-18767154D01*
X175210528Y-18686341D01*
X175210528Y-18578592D01*
X175156653Y-18470842D01*
X175102778Y-18416967D01*
X174995028Y-18363093D01*
X174941154Y-18363093D01*
X174752592Y-18551654D01*
X174860341Y-18659404D01*
X174752592Y-18066781D02*
X174186906Y-18632467D01*
X173971407Y-18416967D01*
X173944470Y-18336155D01*
X173944470Y-18282280D01*
X173971407Y-18201468D01*
X174052219Y-18120656D01*
X174133032Y-18093719D01*
X174186906Y-18093719D01*
X174267719Y-18120656D01*
X174483218Y-18336155D01*
X173351847Y-17797407D02*
X173621221Y-18066781D01*
X173917532Y-17824345D01*
X173863658Y-17824345D01*
X173782845Y-17797407D01*
X173648158Y-17662720D01*
X173621221Y-17581908D01*
X173621221Y-17528033D01*
X173648158Y-17447221D01*
X173782845Y-17312534D01*
X173863658Y-17285597D01*
X173917532Y-17285597D01*
X173998345Y-17312534D01*
X174133032Y-17447221D01*
X174159969Y-17528033D01*
X174159969Y-17581908D01*
X151892592Y-18744277D02*
X151919529Y-18825089D01*
X152000341Y-18905902D01*
X152108091Y-18959776D01*
X152215841Y-18959776D01*
X152296653Y-18932839D01*
X152431340Y-18852027D01*
X152512152Y-18771215D01*
X152592964Y-18636528D01*
X152619902Y-18555715D01*
X152619902Y-18447966D01*
X152566027Y-18340216D01*
X152512152Y-18286341D01*
X152404402Y-18232467D01*
X152350528Y-18232467D01*
X152161966Y-18421028D01*
X152269715Y-18528778D01*
X152161966Y-17936155D02*
X151596280Y-18501841D01*
X151380781Y-18286341D01*
X151353844Y-18205529D01*
X151353844Y-18151654D01*
X151380781Y-18070842D01*
X151461593Y-17990030D01*
X151542406Y-17963093D01*
X151596280Y-17963093D01*
X151677093Y-17990030D01*
X151892592Y-18205529D01*
X151299969Y-17074158D02*
X151623218Y-17397407D01*
X151461593Y-17235783D02*
X150895908Y-17801468D01*
X151030595Y-17774531D01*
X151138345Y-17774531D01*
X151219157Y-17801468D01*
X150572659Y-17370470D02*
X150518784Y-17370470D01*
X150437972Y-17343532D01*
X150303285Y-17208845D01*
X150276348Y-17128033D01*
X150276348Y-17074158D01*
X150303285Y-16993346D01*
X150357160Y-16939471D01*
X150464910Y-16885597D01*
X151111407Y-16885597D01*
X150761221Y-16535410D01*
X139595809Y-38283238D02*
X139633904Y-38168952D01*
X139633904Y-37978476D01*
X139595809Y-37902285D01*
X139557714Y-37864190D01*
X139481523Y-37826095D01*
X139405333Y-37826095D01*
X139329142Y-37864190D01*
X139291047Y-37902285D01*
X139252952Y-37978476D01*
X139214857Y-38130857D01*
X139176761Y-38207047D01*
X139138666Y-38245142D01*
X139062476Y-38283238D01*
X138986285Y-38283238D01*
X138910095Y-38245142D01*
X138872000Y-38207047D01*
X138833904Y-38130857D01*
X138833904Y-37940380D01*
X138872000Y-37826095D01*
X138833904Y-37559428D02*
X139633904Y-37368952D01*
X139062476Y-37216571D01*
X139633904Y-37064190D01*
X138833904Y-36873714D01*
X139633904Y-36568952D02*
X138833904Y-36568952D01*
X138833904Y-36378476D01*
X138872000Y-36264190D01*
X138948190Y-36188000D01*
X139024380Y-36149904D01*
X139176761Y-36111809D01*
X139291047Y-36111809D01*
X139443428Y-36149904D01*
X139519619Y-36188000D01*
X139595809Y-36264190D01*
X139633904Y-36378476D01*
X139633904Y-36568952D01*
X139633904Y-35768952D02*
X138833904Y-35768952D01*
X138833904Y-35235619D02*
X138833904Y-35083238D01*
X138872000Y-35007047D01*
X138948190Y-34930857D01*
X139100571Y-34892761D01*
X139367238Y-34892761D01*
X139519619Y-34930857D01*
X139595809Y-35007047D01*
X139633904Y-35083238D01*
X139633904Y-35235619D01*
X139595809Y-35311809D01*
X139519619Y-35388000D01*
X139367238Y-35426095D01*
X139100571Y-35426095D01*
X138948190Y-35388000D01*
X138872000Y-35311809D01*
X138833904Y-35235619D01*
X149352592Y-44998277D02*
X149379529Y-45079089D01*
X149460341Y-45159902D01*
X149568091Y-45213776D01*
X149675841Y-45213776D01*
X149756653Y-45186839D01*
X149891340Y-45106027D01*
X149972152Y-45025215D01*
X150052964Y-44890528D01*
X150079902Y-44809715D01*
X150079902Y-44701966D01*
X150026027Y-44594216D01*
X149972152Y-44540341D01*
X149864402Y-44486467D01*
X149810528Y-44486467D01*
X149621966Y-44675028D01*
X149729715Y-44782778D01*
X149621966Y-44190155D02*
X149056280Y-44755841D01*
X148840781Y-44540341D01*
X148813844Y-44459529D01*
X148813844Y-44405654D01*
X148840781Y-44324842D01*
X148921593Y-44244030D01*
X149002406Y-44217093D01*
X149056280Y-44217093D01*
X149137093Y-44244030D01*
X149352592Y-44459529D01*
X148759969Y-43328158D02*
X149083218Y-43651407D01*
X148921593Y-43489783D02*
X148355908Y-44055468D01*
X148490595Y-44028531D01*
X148598345Y-44028531D01*
X148679157Y-44055468D01*
X148113471Y-43328158D02*
X148140409Y-43408971D01*
X148140409Y-43462845D01*
X148113471Y-43543658D01*
X148086534Y-43570595D01*
X148005722Y-43597532D01*
X147951847Y-43597532D01*
X147871035Y-43570595D01*
X147763285Y-43462845D01*
X147736348Y-43382033D01*
X147736348Y-43328158D01*
X147763285Y-43247346D01*
X147790223Y-43220409D01*
X147871035Y-43193471D01*
X147924910Y-43193471D01*
X148005722Y-43220409D01*
X148113471Y-43328158D01*
X148194284Y-43355096D01*
X148248158Y-43355096D01*
X148328971Y-43328158D01*
X148436720Y-43220409D01*
X148463658Y-43139597D01*
X148463658Y-43085722D01*
X148436720Y-43004910D01*
X148328971Y-42897160D01*
X148248158Y-42870223D01*
X148194284Y-42870223D01*
X148113471Y-42897160D01*
X148005722Y-43004910D01*
X147978784Y-43085722D01*
X147978784Y-43139597D01*
X148005722Y-43220409D01*
X146570155Y-44501841D02*
X146597093Y-44582653D01*
X146677905Y-44663465D01*
X146785654Y-44717340D01*
X146893404Y-44717340D01*
X146974216Y-44690402D01*
X147108903Y-44609590D01*
X147189715Y-44528778D01*
X147270528Y-44394091D01*
X147297465Y-44313279D01*
X147297465Y-44205529D01*
X147243590Y-44097780D01*
X147189715Y-44043905D01*
X147081966Y-43990030D01*
X147028091Y-43990030D01*
X146839529Y-44178592D01*
X146947279Y-44286341D01*
X146839529Y-43693719D02*
X146273844Y-44259404D01*
X146516280Y-43370470D01*
X145950595Y-43936155D01*
X146246906Y-43101096D02*
X145681221Y-43666781D01*
X145546534Y-43532094D01*
X145492659Y-43424345D01*
X145492659Y-43316595D01*
X145519597Y-43235783D01*
X145600409Y-43101096D01*
X145681221Y-43020284D01*
X145815908Y-42939471D01*
X145896720Y-42912534D01*
X146004470Y-42912534D01*
X146112219Y-42966409D01*
X146246906Y-43101096D01*
X172912964Y-44944402D02*
X172643590Y-44675028D01*
X173128463Y-44836653D02*
X172374216Y-45213776D01*
X172751340Y-44459529D01*
X171727719Y-44513404D02*
X171754656Y-44594216D01*
X171835468Y-44675028D01*
X171943218Y-44728903D01*
X172050967Y-44728903D01*
X172131780Y-44701966D01*
X172266467Y-44621154D01*
X172347279Y-44540341D01*
X172428091Y-44405654D01*
X172455028Y-44324842D01*
X172455028Y-44217093D01*
X172401154Y-44109343D01*
X172347279Y-44055468D01*
X172239529Y-44001593D01*
X172185654Y-44001593D01*
X171997093Y-44190155D01*
X172104842Y-44297905D01*
X171997093Y-43705282D02*
X171431407Y-44270967D01*
X171673844Y-43382033D01*
X171108158Y-43947719D01*
X171404470Y-43112659D02*
X170838784Y-43678345D01*
X170704097Y-43543658D01*
X170650223Y-43435908D01*
X170650223Y-43328158D01*
X170677160Y-43247346D01*
X170757972Y-43112659D01*
X170838784Y-43031847D01*
X170973471Y-42951035D01*
X171054284Y-42924097D01*
X171162033Y-42924097D01*
X171269783Y-42977972D01*
X171404470Y-43112659D01*
%TO.C,J2*%
X74088666Y-22947380D02*
X74088666Y-23661666D01*
X74041047Y-23804523D01*
X73945809Y-23899761D01*
X73802952Y-23947380D01*
X73707714Y-23947380D01*
X74517238Y-23042619D02*
X74564857Y-22995000D01*
X74660095Y-22947380D01*
X74898190Y-22947380D01*
X74993428Y-22995000D01*
X75041047Y-23042619D01*
X75088666Y-23137857D01*
X75088666Y-23233095D01*
X75041047Y-23375952D01*
X74469619Y-23947380D01*
X75088666Y-23947380D01*
%TO.C,J3*%
X73961666Y-38060380D02*
X73961666Y-38774666D01*
X73914047Y-38917523D01*
X73818809Y-39012761D01*
X73675952Y-39060380D01*
X73580714Y-39060380D01*
X74342619Y-38060380D02*
X74961666Y-38060380D01*
X74628333Y-38441333D01*
X74771190Y-38441333D01*
X74866428Y-38488952D01*
X74914047Y-38536571D01*
X74961666Y-38631809D01*
X74961666Y-38869904D01*
X74914047Y-38965142D01*
X74866428Y-39012761D01*
X74771190Y-39060380D01*
X74485476Y-39060380D01*
X74390238Y-39012761D01*
X74342619Y-38965142D01*
%TO.C,J1*%
X127873380Y-19786333D02*
X128587666Y-19786333D01*
X128730523Y-19833952D01*
X128825761Y-19929190D01*
X128873380Y-20072047D01*
X128873380Y-20167285D01*
X128873380Y-18786333D02*
X128873380Y-19357761D01*
X128873380Y-19072047D02*
X127873380Y-19072047D01*
X128016238Y-19167285D01*
X128111476Y-19262523D01*
X128159095Y-19357761D01*
%TO.C,U2*%
X105029095Y-17460380D02*
X105029095Y-18269904D01*
X105076714Y-18365142D01*
X105124333Y-18412761D01*
X105219571Y-18460380D01*
X105410047Y-18460380D01*
X105505285Y-18412761D01*
X105552904Y-18365142D01*
X105600523Y-18269904D01*
X105600523Y-17460380D01*
X106029095Y-17555619D02*
X106076714Y-17508000D01*
X106171952Y-17460380D01*
X106410047Y-17460380D01*
X106505285Y-17508000D01*
X106552904Y-17555619D01*
X106600523Y-17650857D01*
X106600523Y-17746095D01*
X106552904Y-17888952D01*
X105981476Y-18460380D01*
X106600523Y-18460380D01*
D13*
%TO.C,U1*%
X173272000Y-41488000D02*
X172872000Y-41488000D01*
X163172000Y-20488000D02*
X162772000Y-20488000D01*
X145372000Y-41488000D02*
X144972000Y-41488000D01*
X188572000Y-41488000D02*
X188172000Y-41488000D01*
X165672000Y-41488000D02*
X165272000Y-41488000D01*
X150372000Y-20488000D02*
X149972000Y-20488000D01*
X160572000Y-41488000D02*
X160172000Y-41488000D01*
X139972000Y-32088000D02*
X139972000Y-32488000D01*
X188305000Y-20488000D02*
X188305000Y-23495000D01*
X175872000Y-20488000D02*
X175472000Y-20488000D01*
X142772000Y-41488000D02*
X142372000Y-41488000D01*
X178372000Y-20488000D02*
X177972000Y-20488000D01*
X139972000Y-41488000D02*
X139972000Y-34688000D01*
X147872000Y-20488000D02*
X147472000Y-20488000D01*
X168172000Y-41488000D02*
X167772000Y-41488000D01*
X152972000Y-20488000D02*
X152572000Y-20488000D01*
X158072000Y-20488000D02*
X157672000Y-20488000D01*
X190972000Y-41488000D02*
X190672000Y-41488000D01*
X183472000Y-20488000D02*
X183072000Y-20488000D01*
X165672000Y-20488000D02*
X165272000Y-20488000D01*
X168172000Y-20488000D02*
X167772000Y-20488000D01*
X170772000Y-20488000D02*
X170372000Y-20488000D01*
X158072000Y-41488000D02*
X157672000Y-41488000D01*
X188305000Y-23495000D02*
X190972000Y-23495000D01*
X188572000Y-20488000D02*
X188172000Y-20488000D01*
X178372000Y-41488000D02*
X177972000Y-41488000D01*
X185972000Y-20488000D02*
X185572000Y-20488000D01*
X155472000Y-20488000D02*
X155072000Y-20488000D01*
X139972000Y-27288000D02*
X139972000Y-20488000D01*
X145372000Y-20488000D02*
X144972000Y-20488000D01*
X185972000Y-41488000D02*
X185572000Y-41488000D01*
X180872000Y-20488000D02*
X180472000Y-20488000D01*
X180872000Y-41488000D02*
X180472000Y-41488000D01*
X155472000Y-41488000D02*
X155072000Y-41488000D01*
X152972000Y-41488000D02*
X152572000Y-41488000D01*
X170772000Y-41488000D02*
X170372000Y-41488000D01*
X173272000Y-20488000D02*
X172872000Y-20488000D01*
X139972000Y-29488000D02*
X139972000Y-29888000D01*
X190972000Y-20488000D02*
X190972000Y-41488000D01*
X160572000Y-20488000D02*
X160172000Y-20488000D01*
X183472000Y-41488000D02*
X183072000Y-41488000D01*
X142772000Y-20488000D02*
X142372000Y-20488000D01*
X190972000Y-20488000D02*
X190672000Y-20488000D01*
X150372000Y-41488000D02*
X149972000Y-41488000D01*
X147872000Y-41488000D02*
X147472000Y-41488000D01*
X163172000Y-41488000D02*
X162772000Y-41488000D01*
X175872000Y-41488000D02*
X175472000Y-41488000D01*
%TO.C,J2*%
X75521000Y-24428000D02*
X77641000Y-24428000D01*
X77641000Y-22308000D02*
X77641000Y-23368000D01*
X77641000Y-24308000D02*
X77641000Y-24428000D01*
X75521000Y-24308000D02*
X75521000Y-24428000D01*
X76581000Y-22308000D02*
X77641000Y-22308000D01*
%TO.C,J3*%
X77641000Y-39548000D02*
X77641000Y-39668000D01*
X75521000Y-39548000D02*
X75521000Y-39668000D01*
X75521000Y-39668000D02*
X77641000Y-39668000D01*
X76581000Y-37548000D02*
X77641000Y-37548000D01*
X77641000Y-37548000D02*
X77641000Y-38608000D01*
%TO.C,J1*%
X129921000Y-21513000D02*
X129236000Y-21513000D01*
X130711000Y-17518000D02*
X131131000Y-17518000D01*
X129711000Y-19518000D02*
X129711000Y-17518000D01*
X131711000Y-17518000D02*
X132131000Y-17518000D01*
X133131000Y-17518000D02*
X133131000Y-19518000D01*
X130421000Y-20143000D02*
X130421000Y-19518000D01*
X134711000Y-17518000D02*
X135131000Y-17518000D01*
X130711000Y-19518000D02*
X130711000Y-17518000D01*
X134421000Y-20359785D02*
X134421000Y-19518000D01*
X133711000Y-19518000D02*
X133711000Y-17518000D01*
X132711000Y-19518000D02*
X132711000Y-17518000D01*
X131421000Y-20359785D02*
X131421000Y-19518000D01*
X135131000Y-17518000D02*
X135131000Y-19518000D01*
X133711000Y-17518000D02*
X134131000Y-17518000D01*
X129711000Y-17518000D02*
X130131000Y-17518000D01*
X129771000Y-19518000D02*
X129771000Y-17518000D01*
X129236000Y-21513000D02*
X129236000Y-20828000D01*
X131711000Y-19518000D02*
X131711000Y-17518000D01*
X135481000Y-19518000D02*
X135481000Y-20433507D01*
X132421000Y-20359785D02*
X132421000Y-19518000D01*
X129361000Y-19518000D02*
X135481000Y-19518000D01*
X130011000Y-19518000D02*
X130011000Y-17518000D01*
X132711000Y-17518000D02*
X133131000Y-17518000D01*
X131131000Y-17518000D02*
X131131000Y-19518000D01*
X134131000Y-17518000D02*
X134131000Y-19518000D01*
X133421000Y-20359785D02*
X133421000Y-19518000D01*
X129891000Y-19518000D02*
X129891000Y-17518000D01*
X132131000Y-17518000D02*
X132131000Y-19518000D01*
X134711000Y-19518000D02*
X134711000Y-17518000D01*
X130131000Y-17518000D02*
X130131000Y-19518000D01*
X129361000Y-20143000D02*
X129361000Y-19518000D01*
%TO.C,U2*%
X108549594Y-21825294D02*
X108525147Y-21820062D01*
X96612358Y-38101217D02*
X96612358Y-40401217D01*
X97611233Y-35514670D02*
X98451233Y-35514670D01*
X123261000Y-20238000D02*
X126376000Y-20238000D01*
X103033670Y-30884670D02*
X103111233Y-30807106D01*
X93232636Y-38376217D02*
X93682636Y-38376217D01*
X117368397Y-39103796D02*
X117368397Y-29403796D01*
X115868397Y-27903796D02*
X106168397Y-27903796D01*
X94211233Y-35514670D02*
X95051233Y-35514670D01*
X126396000Y-41433000D02*
X126396000Y-19983000D01*
X120849681Y-22798295D02*
X120849681Y-21198296D01*
X107500783Y-25400294D02*
X107500783Y-20500295D01*
X108537385Y-21768900D02*
X108561553Y-21800295D01*
X123261000Y-23398000D02*
X126421000Y-23398000D01*
X85781000Y-38018000D02*
X85781000Y-41178000D01*
X99311233Y-35514670D02*
X99311233Y-30884670D01*
X82651000Y-38018000D02*
X85781000Y-38018000D01*
X117450783Y-25450294D02*
X107550783Y-25450294D01*
X108561553Y-22300294D02*
X110640014Y-22300294D01*
X94211233Y-35514670D02*
X94211233Y-30884670D01*
X106168397Y-40603796D02*
X115868397Y-40603796D01*
X123261000Y-38018000D02*
X126376000Y-38018000D01*
X101461233Y-21164671D02*
X103111233Y-21455610D01*
X93782636Y-38001217D02*
X97382636Y-38001217D01*
X103111233Y-22244670D02*
X92951233Y-22244670D01*
X92951233Y-21455610D02*
X94601233Y-21164671D01*
X93232636Y-40126217D02*
X93232636Y-38376217D01*
X82651000Y-41178000D02*
X85781000Y-41178000D01*
X123261000Y-23398000D02*
X123261000Y-20238000D01*
X121649681Y-22798295D02*
X120849681Y-22798295D01*
X123261000Y-41178000D02*
X123261000Y-38018000D01*
X82651000Y-23393000D02*
X85781000Y-23398000D01*
X121649681Y-21198296D02*
X120849681Y-21198296D01*
X85781000Y-23088000D02*
X85781000Y-23398000D01*
X123261000Y-41178000D02*
X126376000Y-41178000D01*
X99311233Y-35514670D02*
X100151233Y-35514670D01*
X101011233Y-35514670D02*
X101851233Y-35514670D01*
X92950233Y-22822149D02*
X92950233Y-22983687D01*
X93682636Y-40401217D02*
X93682636Y-38101217D01*
X120849681Y-21518296D02*
X121649681Y-21518296D01*
X96751233Y-35514670D02*
X96751233Y-30884670D01*
X108549594Y-21825294D02*
X108561553Y-21800295D01*
X103111233Y-30807106D02*
X103111233Y-21455610D01*
X117500783Y-20500295D02*
X117500783Y-25400294D01*
X82646000Y-19983000D02*
X82646000Y-41433000D01*
X93682636Y-40126217D02*
X93232636Y-40126217D01*
X95051233Y-35514670D02*
X95051233Y-30884670D01*
X100151233Y-35514670D02*
X100151233Y-30884670D01*
X97482636Y-38376217D02*
X97932636Y-38376217D01*
X94601233Y-21164671D02*
X101461233Y-21164671D01*
X97611233Y-35514670D02*
X97611233Y-30884670D01*
X110640014Y-21800295D02*
X108561553Y-21800295D01*
X82651000Y-20238000D02*
X83951000Y-20238000D01*
X108549594Y-21825294D02*
X108556764Y-21794075D01*
X93028797Y-30884670D02*
X103033670Y-30884670D01*
X97482636Y-38101217D02*
X97482636Y-40401217D01*
X107550783Y-20450295D02*
X117450783Y-20450295D01*
X126396000Y-19983000D02*
X82646000Y-19983000D01*
X82646000Y-41433000D02*
X126396000Y-41433000D01*
X121649681Y-22478295D02*
X120849681Y-22478295D01*
X121649681Y-21198296D02*
X121649681Y-22798295D01*
X95911233Y-35514670D02*
X96751233Y-35514670D01*
X97483636Y-38612696D02*
X97483636Y-38518144D01*
X104668397Y-29403796D02*
X104668397Y-39103796D01*
X101011233Y-35514670D02*
X101011233Y-30884670D01*
X101851233Y-35514670D02*
X101851233Y-30884670D01*
X116059978Y-20449295D02*
X116015106Y-20449295D01*
X92951233Y-30807106D02*
X93028797Y-30884670D01*
X92951233Y-30807106D02*
X92951233Y-21455610D01*
X98451233Y-35514670D02*
X98451233Y-30884670D01*
X116143312Y-20449295D02*
X116109357Y-20449295D01*
X97382636Y-40501217D02*
X93782636Y-40501217D01*
X97932636Y-40126217D02*
X97482636Y-40126217D01*
X97932636Y-38376217D02*
X97932636Y-40126217D01*
X95911233Y-35514670D02*
X95911233Y-30884670D01*
X115868397Y-40603797D02*
G75*
G03*
X117368397Y-39103796I3J1499997D01*
G01*
X108182799Y-39255947D02*
G75*
G03*
X108048611Y-39290062I-49299J-87053D01*
G01*
X113854011Y-29251617D02*
G75*
G03*
X108182784Y-29251617I-2835613J-5002178D01*
G01*
X108048610Y-29217531D02*
G75*
G03*
X105982132Y-31284011I-1272850J-793629D01*
G01*
X106016249Y-31418200D02*
G75*
G03*
X105982131Y-31284010I-87049J49300D01*
G01*
X107550783Y-20450283D02*
G75*
G03*
X107500783Y-20500295I17J-50017D01*
G01*
X106168397Y-27903797D02*
G75*
G03*
X104668397Y-29403796I3J-1500003D01*
G01*
X108048641Y-29217512D02*
G75*
G03*
X108182783Y-29251617I84859J52912D01*
G01*
X93682583Y-40401217D02*
G75*
G03*
X93782636Y-40501217I100017J17D01*
G01*
X104668404Y-39103796D02*
G75*
G03*
X106168397Y-40603796I1499996J-4D01*
G01*
X106016221Y-31418185D02*
G75*
G03*
X106016218Y-37089410I5002179J-2835615D01*
G01*
X107500806Y-25400294D02*
G75*
G03*
X107550783Y-25450294I49994J-6D01*
G01*
X97382636Y-40501236D02*
G75*
G03*
X97482636Y-40401217I-36J100036D01*
G01*
X93782636Y-38001236D02*
G75*
G03*
X93682636Y-38101217I-36J-99964D01*
G01*
X108537385Y-22331690D02*
G75*
G03*
X108525148Y-22280527I1063415J281390D01*
G01*
X116054667Y-31284018D02*
G75*
G03*
X113988183Y-29217531I-793667J1272818D01*
G01*
X116020579Y-37089412D02*
G75*
G03*
X116020576Y-31418183I-5002179J2835612D01*
G01*
X105982137Y-37223590D02*
G75*
G03*
X108048611Y-39290062I793663J-1272810D01*
G01*
X113988162Y-39290075D02*
G75*
G03*
X113854011Y-39255976I-84862J-52925D01*
G01*
X113853998Y-29251641D02*
G75*
G03*
X113988183Y-29217531I49302J87041D01*
G01*
X116020555Y-37089398D02*
G75*
G03*
X116054663Y-37223583I87045J-49302D01*
G01*
X105982118Y-37223560D02*
G75*
G03*
X106016217Y-37089409I-52918J84860D01*
G01*
X116054679Y-31284039D02*
G75*
G03*
X116020577Y-31418184I52921J-84861D01*
G01*
X117500805Y-20500295D02*
G75*
G03*
X117450783Y-20450295I-50005J-5D01*
G01*
X113988182Y-39290062D02*
G75*
G03*
X116054662Y-37223582I1272858J793622D01*
G01*
X108182783Y-39255976D02*
G75*
G03*
X113854011Y-39255976I2835614J5002180D01*
G01*
X117450783Y-25450283D02*
G75*
G03*
X117500783Y-25400294I17J49983D01*
G01*
X117368404Y-29403796D02*
G75*
G03*
X115868397Y-27903796I-1500004J-4D01*
G01*
X97482583Y-38101217D02*
G75*
G03*
X97382636Y-38001217I-99983J17D01*
G01*
X90879999Y-22453000D02*
G75*
G03*
X90879999Y-22453000I-1598999J0D01*
G01*
X116268397Y-34253796D02*
G75*
G03*
X116268397Y-34253796I-5250000J0D01*
G01*
X94249179Y-29972594D02*
G75*
G03*
X94249179Y-29972594I-375000J0D01*
G01*
X90847666Y-30775418D02*
G75*
G03*
X90847666Y-30775418I-4000000J0D01*
G01*
X126230307Y-31273206D02*
G75*
G03*
X126230307Y-31273206I-4000000J0D01*
G01*
X121360000Y-38963000D02*
G75*
G03*
X121360000Y-38963000I-1599000J0D01*
G01*
%TD*%
M02*
