%TF.GenerationSoftware,KiCad,Pcbnew,(6.0.9)*%
%TF.CreationDate,2023-01-12T20:02:04+01:00*%
%TF.ProjectId,pcb,7063622e-6b69-4636-9164-5f7063625858,rev?*%
%TF.SameCoordinates,Original*%
%TF.FileFunction,Soldermask,Bot*%
%TF.FilePolarity,Negative*%
%FSLAX46Y46*%
G04 Gerber Fmt 4.6, Leading zero omitted, Abs format (unit mm)*
G04 Created by KiCad (PCBNEW (6.0.9)) date 2023-01-12 20:02:04*
%MOMM*%
%LPD*%
G01*
G04 APERTURE LIST*
%ADD10O,1.800000X1.800000*%
%ADD11O,1.500000X1.500000*%
%ADD12O,1.700000X1.700000*%
%ADD13R,1.700000X1.700000*%
%ADD14R,1.350000X1.350000*%
%ADD15R,0.850000X0.850000*%
%ADD16O,0.850000X0.850000*%
%ADD17R,2.540000X2.540000*%
%ADD18C,2.540000*%
G04 APERTURE END LIST*
D10*
%TO.C,U1*%
X189472000Y-33713000D03*
D11*
X186442000Y-28563000D03*
X186442000Y-33413000D03*
D10*
X189472000Y-28263000D03*
D12*
X189602000Y-22098000D03*
X187062000Y-22098000D03*
D13*
X184522000Y-22098000D03*
D12*
X181982000Y-22098000D03*
X179442000Y-22098000D03*
X176902000Y-22098000D03*
X174362000Y-22098000D03*
D13*
X171822000Y-22098000D03*
D12*
X169282000Y-22098000D03*
X166742000Y-22098000D03*
X164202000Y-22098000D03*
X161662000Y-22098000D03*
D13*
X159122000Y-22098000D03*
D12*
X156582000Y-22098000D03*
X154042000Y-22098000D03*
X151502000Y-22098000D03*
X148962000Y-22098000D03*
D13*
X146422000Y-22098000D03*
D12*
X143882000Y-22098000D03*
X141342000Y-22098000D03*
X141342000Y-39878000D03*
X143882000Y-39878000D03*
D13*
X146422000Y-39878000D03*
D12*
X148962000Y-39878000D03*
X151502000Y-39878000D03*
X154042000Y-39878000D03*
X156582000Y-39878000D03*
D13*
X159122000Y-39878000D03*
D12*
X161662000Y-39878000D03*
X164202000Y-39878000D03*
X166742000Y-39878000D03*
X169282000Y-39878000D03*
D13*
X171822000Y-39878000D03*
D12*
X174362000Y-39878000D03*
X176902000Y-39878000D03*
X179442000Y-39878000D03*
X181982000Y-39878000D03*
D13*
X184522000Y-39878000D03*
D12*
X187062000Y-39878000D03*
X189602000Y-39878000D03*
X141572000Y-28448000D03*
D13*
X141572000Y-30988000D03*
D12*
X141572000Y-33528000D03*
%TD*%
D14*
%TO.C,J2*%
X76581000Y-23368000D03*
%TD*%
%TO.C,J3*%
X76581000Y-38608000D03*
%TD*%
D15*
%TO.C,J1*%
X129921000Y-20828000D03*
D16*
X130921000Y-20828000D03*
X131921000Y-20828000D03*
X132921000Y-20828000D03*
X133921000Y-20828000D03*
X134921000Y-20828000D03*
%TD*%
D17*
%TO.C,U2*%
X84201000Y-21818000D03*
D18*
X84201000Y-39598000D03*
X124841000Y-39598000D03*
X124841000Y-21818000D03*
%TD*%
M02*
